<svg version="1.1" id="Layer_1" xmlns="http://www.w3.org/2000/svg" xmlns:xlink="http://www.w3.org/1999/xlink" x="0px" y="0px"
	 width="100%" viewBox="0 0 200 200" enable-background="new 0 0 200 200" xml:space="preserve">
<path fill="#F1F0F0" opacity="1.000000" stroke="none" 
	d="
M119.000000,201.000000 
	C79.357826,201.000000 40.215649,201.000000 1.036737,201.000000 
	C1.036737,134.399536 1.036737,67.799034 1.036737,1.099268 
	C67.558670,1.099268 134.117538,1.099268 200.838196,1.099268 
	C200.838196,67.666351 200.838196,134.333145 200.838196,201.000000 
	C173.799316,201.000000 146.649658,201.000000 119.000000,201.000000 
M160.981873,130.977859 
	C160.981873,130.977859 160.940964,130.948929 161.642166,130.855438 
	C162.003662,130.096085 162.365143,129.336731 162.719635,127.878403 
	C162.631805,127.192184 162.543991,126.505966 162.703934,125.867599 
	C162.703934,125.867599 162.941330,125.953140 163.655426,125.909912 
	C165.355347,124.594490 169.469604,123.894127 164.970184,120.331001 
	C165.050980,119.902260 165.131775,119.473518 165.899460,118.839661 
	C169.000458,114.766273 168.811340,110.878143 164.419113,106.966278 
	C166.407898,106.568314 167.645996,106.320564 169.342773,105.981026 
	C168.856750,102.753990 168.423401,99.876610 168.722153,96.979301 
	C169.406509,96.448151 170.090851,95.917000 170.775208,95.385849 
	C169.846970,94.924133 168.918716,94.462418 167.987717,93.158142 
	C167.323929,89.438690 166.660141,85.719231 166.480637,81.961945 
	C166.732758,81.804939 166.984879,81.647942 167.236984,81.490929 
	C166.820831,81.327698 166.404663,81.164474 165.978836,80.333382 
	C165.977356,79.888107 165.975876,79.442825 166.689743,78.870285 
	C167.182037,76.974937 168.335922,74.953957 168.005676,73.214813 
	C167.553360,70.832817 165.543167,69.702652 162.399185,70.719200 
	C161.929428,69.817329 161.459656,68.915459 160.993652,67.212990 
	C160.427505,63.468285 160.683212,59.161346 154.987122,59.021484 
	C154.987122,56.465221 155.192703,54.133205 154.892792,51.868122 
	C154.760269,50.867229 153.310852,49.096355 152.954697,49.211220 
	C147.701538,50.905422 144.931198,47.894314 143.016418,44.516380 
	C143.790939,42.932343 144.516922,41.447575 145.368683,39.705574 
	C141.853149,39.409771 139.427216,39.205647 137.000000,39.000000 
	C137.000000,39.000000 136.998611,38.998474 136.996292,38.224289 
	C136.432114,37.220676 135.867935,36.217064 135.303757,35.213451 
	C131.886963,39.297421 129.380539,37.018517 126.852615,34.098404 
	C126.559158,33.759418 125.573776,34.019245 124.909172,34.001785 
	C112.200272,33.667934 99.492508,33.228001 86.781487,33.092228 
	C84.316742,33.065903 81.839333,34.226208 78.673248,35.011383 
	C78.210289,34.793018 76.356766,33.220058 75.411453,33.648941 
	C74.217690,34.190544 73.209465,36.327969 73.111259,37.841251 
	C72.927734,40.669209 71.459343,40.994358 69.193253,41.041729 
	C66.925056,41.089138 63.397366,40.673061 62.623726,41.876129 
	C59.590267,46.593430 57.760738,45.087021 55.926819,40.739201 
	C53.917904,42.629326 52.371330,44.084446 50.223091,46.105659 
	C53.062511,46.842445 54.765923,47.284454 57.325954,47.948746 
	C55.884422,48.572800 55.434780,48.956669 55.029011,48.914852 
	C48.519440,48.243946 47.216534,56.084648 41.705650,57.148026 
	C41.363087,57.214127 41.492317,59.260036 41.240055,60.347248 
	C40.506992,63.506695 39.834988,66.691505 38.876099,69.784851 
	C37.267014,74.975731 29.479275,79.180016 36.397118,85.717392 
	C36.397118,85.717392 36.458122,85.756905 35.701599,85.491364 
	C35.147182,86.144135 34.138142,86.777031 34.108593,87.452759 
	C33.808937,94.305740 33.469685,101.167809 33.541279,108.023148 
	C33.611362,114.734489 34.145687,121.440979 34.476242,128.149597 
	C34.908184,127.940102 35.340130,127.730598 35.772076,127.521095 
	C37.498219,130.595627 40.067986,133.494995 40.751308,136.786041 
	C41.757473,141.632019 42.353287,145.977905 48.677891,145.493057 
	C49.004089,149.128601 49.291084,152.327209 49.610985,155.892548 
	C51.231056,154.109695 52.493084,152.720856 53.694996,151.398193 
	C59.005898,154.216248 56.640007,157.289612 54.088722,160.375458 
	C54.352020,160.693832 54.615318,161.012207 54.878616,161.330582 
	C58.053055,160.631393 61.227489,159.932190 64.401924,159.232986 
	C64.322777,159.460754 64.243629,159.688522 64.164482,159.916290 
	C66.485985,160.218735 68.807487,160.521194 71.099991,160.848007 
	C71.099991,160.848007 71.091949,160.879364 71.128113,161.559906 
	C71.808640,161.985107 72.489166,162.410309 73.094681,162.797012 
	C73.094681,162.797012 73.180931,162.809814 73.062576,163.639557 
	C72.873940,165.223572 72.685310,166.807587 72.443573,168.837585 
	C76.289192,168.299515 80.403374,171.054794 83.969749,166.534058 
	C84.979263,166.668365 85.988777,166.802689 87.138153,167.661530 
	C88.792168,167.687225 90.446182,167.712936 92.621292,167.668304 
	C93.091293,167.481766 93.561302,167.295227 94.933876,167.208008 
	C98.229813,167.185928 101.525742,167.163834 105.517525,167.509064 
	C113.935333,167.531525 121.842476,165.733536 129.610535,160.771179 
	C134.000732,158.137024 138.390930,155.502869 143.438843,152.903900 
	C143.880173,152.503265 144.321518,152.102646 144.739258,151.679138 
	C144.739258,151.679138 144.728729,151.648010 145.461578,151.797852 
	C148.186340,150.018784 152.289871,149.458923 151.835342,144.821716 
	C151.835342,144.821716 151.738770,144.697342 152.507721,144.860138 
	C154.304077,141.845901 156.100449,138.831680 158.121887,135.241165 
	C158.407822,134.478622 158.693756,133.716080 159.421143,132.977097 
	C159.421143,132.977097 159.861969,132.943619 160.409744,132.659225 
	C160.589050,132.092194 160.768356,131.525162 160.981873,130.977859 
z"/>
<path fill="#F2EFEF" opacity="1.000000" stroke="none" 
	d="
M71.128990,160.823639 
	C68.807487,160.521194 66.485985,160.218735 64.164482,159.916290 
	C64.243629,159.688522 64.322777,159.460754 64.401924,159.232986 
	C61.227489,159.932190 58.053055,160.631393 54.878616,161.330582 
	C54.615318,161.012207 54.352020,160.693832 54.088722,160.375458 
	C56.640007,157.289612 59.005898,154.216248 53.694996,151.398193 
	C52.493084,152.720856 51.231056,154.109695 49.610985,155.892548 
	C49.291084,152.327209 49.004089,149.128601 48.677891,145.493057 
	C42.353287,145.977905 41.757473,141.632019 40.751308,136.786041 
	C40.067986,133.494995 37.498219,130.595627 35.772076,127.521095 
	C35.340130,127.730598 34.908184,127.940102 34.476242,128.149597 
	C34.145687,121.440979 33.611362,114.734489 33.541279,108.023148 
	C33.469685,101.167809 33.808937,94.305740 34.108593,87.452759 
	C34.138142,86.777031 35.147182,86.144135 36.081215,85.992897 
	C34.507038,96.055687 34.190090,105.614441 36.553711,115.576797 
	C39.552837,123.053749 42.503067,130.123047 45.567970,137.534927 
	C46.995907,139.593018 48.309174,141.308517 49.597427,143.164764 
	C49.572414,143.305496 49.786880,143.494324 49.786880,143.494324 
	C49.786880,143.494324 50.060844,143.412521 50.162796,143.710785 
	C50.714184,144.430893 51.163616,144.852737 51.744854,145.587555 
	C53.912621,147.835251 55.948586,149.769974 59.011806,152.680862 
	C57.194145,144.514694 55.673588,137.683319 54.190567,130.643982 
	C54.228100,130.436005 54.020805,130.067657 54.107857,129.681442 
	C53.346584,116.774750 55.846489,104.986588 62.172211,93.761719 
	C64.330696,90.880432 66.235977,88.217232 68.395332,85.407959 
	C68.746956,85.092613 68.844505,84.923325 69.163666,84.674889 
	C69.650436,84.218124 69.915588,83.840508 70.489235,83.299545 
	C75.586525,79.457481 80.375305,75.778748 85.242241,72.197800 
	C85.320396,72.295593 85.533897,72.162888 85.533897,72.162888 
	C85.533897,72.162888 85.515053,71.911728 85.840591,71.821388 
	C87.105492,71.141777 88.044868,70.552498 89.279190,69.950684 
	C90.042252,69.603020 90.510353,69.267899 91.278076,68.908569 
	C92.032532,68.531326 92.487366,68.178276 93.269928,67.818085 
	C94.750130,67.242119 95.902611,66.673294 97.435471,66.124283 
	C99.927299,65.127708 102.038742,64.111336 104.491341,63.091831 
	C105.900955,62.423603 106.969421,61.758495 108.403824,61.071945 
	C111.255341,60.409584 111.734879,59.033756 109.592644,57.574207 
	C106.563675,55.510517 103.295662,53.797691 99.946144,51.623722 
	C95.221924,49.624668 90.788567,47.514896 86.120529,46.328796 
	C72.659096,42.908398 60.541851,44.498913 51.919640,56.926765 
	C51.983624,56.969414 51.880650,56.855179 51.594551,56.950500 
	C50.711056,57.822289 50.113659,58.598747 49.482605,59.427269 
	C49.448944,59.479332 49.372105,59.576645 49.113918,59.760113 
	C46.287731,64.300743 43.719727,68.657913 41.001709,73.211182 
	C40.669216,73.722412 40.666065,74.039337 40.548943,74.606369 
	C39.659576,76.514809 39.063503,78.174950 38.303253,80.057068 
	C37.993229,80.811401 37.847382,81.343758 37.439445,82.092583 
	C36.935951,83.432449 36.694546,84.555832 36.453140,85.679222 
	C29.479275,79.180016 37.267014,74.975731 38.876099,69.784851 
	C39.834988,66.691505 40.506992,63.506695 41.240055,60.347248 
	C41.492317,59.260036 41.363087,57.214127 41.705650,57.148026 
	C47.216534,56.084648 48.519440,48.243946 55.029011,48.914852 
	C55.434780,48.956669 55.884422,48.572800 57.325954,47.948746 
	C54.765923,47.284454 53.062511,46.842445 50.223091,46.105659 
	C52.371330,44.084446 53.917904,42.629326 55.926819,40.739201 
	C57.760738,45.087021 59.590267,46.593430 62.623726,41.876129 
	C63.397366,40.673061 66.925056,41.089138 69.193253,41.041729 
	C71.459343,40.994358 72.927734,40.669209 73.111259,37.841251 
	C73.209465,36.327969 74.217690,34.190544 75.411453,33.648941 
	C76.356766,33.220058 78.210289,34.793018 78.673248,35.011383 
	C81.839333,34.226208 84.316742,33.065903 86.781487,33.092228 
	C99.492508,33.228001 112.200272,33.667934 124.909172,34.001785 
	C125.573776,34.019245 126.559158,33.759418 126.852615,34.098404 
	C129.380539,37.018517 131.886963,39.297421 135.303757,35.213451 
	C135.867935,36.217064 136.432114,37.220676 136.661072,38.618618 
	C135.722443,39.392708 135.119064,39.772465 134.515671,40.152225 
	C134.739731,40.355244 135.134491,40.756504 135.162766,40.732162 
	C135.799881,40.183483 136.396790,39.588112 137.001266,39.001526 
	C139.427216,39.205647 141.853149,39.409771 145.368683,39.705574 
	C144.516922,41.447575 143.790939,42.932343 143.016418,44.516380 
	C144.931198,47.894314 147.701538,50.905422 152.954697,49.211220 
	C153.310852,49.096355 154.760269,50.867229 154.892792,51.868122 
	C155.192703,54.133205 154.987122,56.465221 154.987122,59.021484 
	C160.683212,59.161346 160.427505,63.468285 160.632065,67.613449 
	C159.791000,68.031952 159.311508,68.049988 158.604950,67.863159 
	C157.619568,66.738602 156.861267,65.818901 156.050629,64.929848 
	C155.998276,64.960495 156.114853,64.927597 156.044815,64.648605 
	C155.705185,64.111145 155.435577,63.852661 155.129471,63.336121 
	C154.753113,62.701614 154.413254,62.325172 154.008972,61.614861 
	C146.923737,52.115639 138.357040,44.953117 127.194122,40.555702 
	C115.524048,35.412487 103.840302,32.637024 91.112869,35.659706 
	C90.212334,35.679790 89.605362,35.819485 88.609375,35.923977 
	C86.923340,35.959038 85.626312,36.029293 84.073318,36.146500 
	C83.555534,36.410912 83.293716,36.628372 82.695923,36.941605 
	C81.214958,37.663494 80.069977,38.289619 78.671875,39.112003 
	C81.267548,40.244785 84.116333,41.181305 87.056763,42.465473 
	C90.668846,43.745823 94.189301,44.678524 97.809799,45.605354 
	C97.909836,45.599491 98.041077,45.750973 98.096085,46.141373 
	C99.540184,46.976719 100.929276,47.421658 102.509422,47.868073 
	C102.700478,47.869545 102.963295,48.146938 103.068382,48.373123 
	C103.406860,48.874119 103.703506,49.000736 104.346420,49.025406 
	C105.079597,49.416664 105.529770,49.761673 106.085167,50.319035 
	C106.401283,50.785324 106.668472,50.945206 107.202751,51.275505 
	C120.262932,60.140232 129.060959,71.550789 132.183182,86.973274 
	C134.635742,99.087830 133.723953,111.110519 131.286072,123.456223 
	C130.195374,126.378784 129.279129,128.963272 127.725014,133.347046 
	C132.937744,131.261292 136.980148,129.643814 141.203827,128.266632 
	C141.959412,129.052994 142.533737,129.599075 143.082672,130.366028 
	C143.057251,130.586899 143.072525,131.032913 142.771408,131.069519 
	C141.980072,131.407089 141.489838,131.708054 140.696564,132.018814 
	C139.946930,132.360703 139.500366,132.692795 139.030243,133.022186 
	C139.006683,133.019470 139.022461,133.067596 138.651337,133.105774 
	C135.500443,134.100845 132.745346,135.138092 129.936401,135.999847 
	C120.757721,138.815781 111.435684,137.854889 101.893616,136.660187 
	C93.813568,132.869659 85.961868,129.360748 77.936234,125.642014 
	C77.267868,125.216682 76.773438,125.001175 76.155426,124.473648 
	C72.018898,120.444878 68.005959,116.728127 63.936600,112.697456 
	C63.256603,111.920242 62.633018,111.456955 62.004715,110.996834 
	C62.000000,111.000000 62.006287,110.989807 61.947475,110.645096 
	C60.755104,110.593971 58.652870,110.831161 58.632011,111.189522 
	C58.267704,117.447678 58.158352,123.720680 57.989136,130.323639 
	C58.017765,131.099182 58.050793,131.541534 58.048248,132.386948 
	C59.961647,138.825485 61.838375,144.886246 63.931950,150.871140 
	C64.273758,151.848282 65.572762,152.490585 66.507896,153.490204 
	C66.586449,153.692749 66.807327,154.066925 66.838959,154.412857 
	C68.290047,156.780411 69.709518,158.802017 71.128990,160.823639 
z"/>
<path fill="#F7E4D6" opacity="1.000000" stroke="none" 
	d="
M158.832031,68.068024 
	C159.311508,68.049988 159.791000,68.031952 160.630188,68.013748 
	C161.459656,68.915459 161.929428,69.817329 162.730988,71.224686 
	C164.033325,74.152634 165.003845,76.575089 165.974380,78.997551 
	C165.975876,79.442825 165.977356,79.888107 165.983582,80.916962 
	C165.988327,81.500534 165.996338,81.999779 165.996338,81.999779 
	C166.660141,85.719231 167.323929,89.438690 167.984955,93.954224 
	C167.984818,95.499947 167.987427,96.249588 167.990036,96.999237 
	C168.423401,99.876610 168.856750,102.753990 169.342773,105.981026 
	C167.645996,106.320564 166.407898,106.568314 164.419113,106.966278 
	C168.811340,110.878143 169.000458,114.766273 165.499298,118.556915 
	C165.232254,116.560555 165.365372,114.846947 165.474670,113.439842 
	C158.736801,118.822067 152.367508,123.909851 145.686157,129.042358 
	C144.618744,129.439774 143.863419,129.792465 143.108078,130.145157 
	C142.533737,129.599075 141.959412,129.052994 141.496918,128.090012 
	C144.955963,124.993179 148.303131,122.313248 151.951370,119.504944 
	C154.879135,116.279068 157.505829,113.181549 160.403717,109.872070 
	C165.426010,102.548798 168.783371,95.173012 165.145874,86.374893 
	C165.214127,86.292770 165.086823,86.121300 165.098114,85.730453 
	C164.759369,84.385223 164.409317,83.430832 164.149384,82.126022 
	C162.756439,78.177643 161.273346,74.579689 159.791656,70.739212 
	C159.694077,70.143501 159.463165,69.939857 159.103043,69.874634 
	C159.105743,69.863518 159.122055,69.847404 159.099106,69.546478 
	C158.994781,68.853043 158.913406,68.460533 158.832031,68.068024 
M166.266083,104.164040 
	C166.422470,104.113495 166.578873,104.062958 166.735260,104.012413 
	C166.578339,103.962204 166.421402,103.911995 166.266083,104.164040 
z"/>
<path fill="#E5B24C" opacity="1.000000" stroke="none" 
	d="
M142.781143,152.868713 
	C138.390930,155.502869 134.000732,158.137024 128.866806,160.855576 
	C127.070198,160.944702 126.017311,160.949432 125.155457,160.667694 
	C130.534012,157.203613 135.721527,154.025955 141.229767,150.755188 
	C144.985916,147.016327 148.475266,143.418365 151.796722,139.671570 
	C152.276443,139.130432 151.949463,137.874161 152.037567,136.598663 
	C153.356979,134.152084 154.634628,132.055664 156.071213,129.638947 
	C157.938904,125.914604 159.647659,122.510536 161.356415,119.106476 
	C161.757446,119.245209 162.158463,119.383942 162.559494,119.522675 
	C162.786118,120.438240 163.012741,121.353813 163.205841,122.636124 
	C163.095306,123.986290 163.018311,124.969719 162.941315,125.953140 
	C162.941330,125.953140 162.703934,125.867599 162.254852,125.918457 
	C160.863754,128.297394 159.921707,130.625473 158.979675,132.953537 
	C158.693756,133.716080 158.407822,134.478622 157.724289,135.717346 
	C155.464050,139.028137 153.601410,141.862732 151.738770,144.697342 
	C151.738770,144.697342 151.835342,144.821716 151.445679,144.856995 
	C148.946930,147.144196 146.837830,149.396103 144.728729,151.648010 
	C144.728729,151.648010 144.739258,151.679138 144.447403,151.706085 
	C143.697418,152.111603 143.239288,152.490158 142.781143,152.868713 
z"/>
<path fill="#F6C068" opacity="1.000000" stroke="none" 
	d="
M163.239380,122.269386 
	C163.012741,121.353813 162.786118,120.438240 162.559494,119.522675 
	C162.158463,119.383942 161.757446,119.245209 161.356415,119.106476 
	C159.647659,122.510536 157.938904,125.914604 155.843353,129.651886 
	C155.456573,129.985092 154.998611,129.998215 154.999298,129.999115 
	C155.000000,130.000000 155.001770,130.001373 154.734894,129.729553 
	C151.647583,130.305832 148.827148,131.153946 146.006439,131.626465 
	C146.003510,130.499802 146.000870,129.748734 145.998230,128.997650 
	C152.367508,123.909851 158.736801,118.822067 165.474670,113.439842 
	C165.365372,114.846947 165.232254,116.560555 165.155853,118.659470 
	C165.131775,119.473518 165.050980,119.902260 164.696915,120.764168 
	C164.028885,121.554680 163.634125,121.912033 163.239380,122.269386 
z"/>
<path fill="#E9C673" opacity="1.000000" stroke="none" 
	d="
M71.114487,160.835815 
	C69.709518,158.802017 68.290047,156.780411 67.240143,154.403275 
	C71.059395,155.083130 75.047142,155.357178 76.077682,160.312286 
	C82.101669,162.461884 88.023567,164.259277 93.965515,166.319778 
	C94.000824,166.758179 94.016068,166.933441 94.031311,167.108704 
	C93.561302,167.295227 93.091293,167.481766 92.015617,167.563141 
	C89.939392,167.284317 88.468842,167.110672 86.998291,166.937012 
	C85.988777,166.802689 84.979263,166.668365 83.326721,166.304199 
	C79.516106,164.986160 76.348518,163.897995 73.180931,162.809814 
	C73.180931,162.809814 73.094681,162.797012 73.104462,162.494904 
	C72.440147,161.754974 71.766052,161.317169 71.091949,160.879364 
	C71.091949,160.879364 71.099991,160.848007 71.114487,160.835815 
z"/>
<path fill="#E9C673" opacity="1.000000" stroke="none" 
	d="
M124.964432,160.954163 
	C126.017311,160.949432 127.070198,160.944702 128.517151,160.943390 
	C121.842476,165.733536 113.935333,167.531525 105.569366,167.204041 
	C107.200653,166.433258 108.780083,165.967484 110.645721,165.502808 
	C111.870285,165.265533 112.808647,165.027191 114.070053,164.837479 
	C114.927261,164.584946 115.461426,164.283798 115.997803,163.991867 
	C116.000000,164.001083 115.985344,163.988464 116.377686,164.009766 
	C118.170006,163.618500 119.569977,163.205948 121.212799,162.686310 
	C121.947350,162.379745 122.439041,162.180267 123.238785,161.972473 
	C124.021614,161.627060 124.496391,161.289963 124.979858,160.959686 
	C124.988548,160.966522 124.964432,160.954163 124.964432,160.954163 
z"/>
<path fill="#F2EFEF" opacity="1.000000" stroke="none" 
	d="
M73.121750,163.224701 
	C76.348518,163.897995 79.516106,164.986160 82.944672,166.297318 
	C80.403374,171.054794 76.289192,168.299515 72.443573,168.837585 
	C72.685310,166.807587 72.873940,165.223572 73.121750,163.224701 
M77.425278,167.188599 
	C77.797386,167.193100 78.169502,167.197601 78.541611,167.202087 
	C78.543381,167.047714 78.555695,166.759186 78.545387,166.758377 
	C78.175133,166.729294 77.802780,166.727066 77.425278,167.188599 
z"/>
<path fill="#F2EFEF" opacity="1.000000" stroke="none" 
	d="
M166.332062,78.933914 
	C165.003845,76.575089 164.033325,74.152634 163.011719,71.376678 
	C165.543167,69.702652 167.553360,70.832817 168.005676,73.214813 
	C168.335922,74.953957 167.182037,76.974937 166.332062,78.933914 
z"/>
<path fill="#F7E4D6" opacity="1.000000" stroke="none" 
	d="
M152.123230,144.778748 
	C153.601410,141.862732 155.464050,139.028137 157.611755,136.005493 
	C156.100449,138.831680 154.304077,141.845901 152.123230,144.778748 
z"/>
<path fill="#F7E4D6" opacity="1.000000" stroke="none" 
	d="
M145.095154,151.722931 
	C146.837830,149.396103 148.946930,147.144196 151.376587,144.819275 
	C152.289871,149.458923 148.186340,150.018784 145.095154,151.722931 
z"/>
<path fill="#E5B24C" opacity="1.000000" stroke="none" 
	d="
M110.359520,165.501724 
	C108.780083,165.967484 107.200653,166.433258 105.221451,167.020386 
	C101.525742,167.163834 98.229813,167.185928 94.482590,167.158356 
	C94.016068,166.933441 94.000824,166.758179 94.427414,166.262787 
	C100.032684,165.795700 105.196098,165.648712 110.359520,165.501724 
z"/>
<path fill="#F7E4D6" opacity="1.000000" stroke="none" 
	d="
M163.205826,122.636124 
	C163.634125,121.912033 164.028885,121.554680 164.666962,121.090744 
	C169.469604,123.894127 165.355347,124.594490 163.298370,125.931526 
	C163.018311,124.969719 163.095306,123.986290 163.205826,122.636124 
z"/>
<path fill="#F6C068" opacity="1.000000" stroke="none" 
	d="
M159.200409,132.965317 
	C159.921707,130.625473 160.863754,128.297394 162.130981,125.894531 
	C162.543991,126.505966 162.631805,127.192184 162.417419,128.345551 
	C161.723785,129.524765 161.332382,130.236847 160.940979,130.948929 
	C160.940964,130.948929 160.981873,130.977859 160.726898,131.143372 
	C160.268600,131.853806 160.065277,132.398712 159.861969,132.943619 
	C159.861969,132.943619 159.421143,132.977097 159.200409,132.965317 
z"/>
<path fill="#F2EFEF" opacity="1.000000" stroke="none" 
	d="
M87.068222,167.299271 
	C88.468842,167.110672 89.939392,167.284317 91.755066,167.598297 
	C90.446182,167.712936 88.792168,167.687225 87.068222,167.299271 
z"/>
<path fill="#F2EFEF" opacity="1.000000" stroke="none" 
	d="
M168.356094,96.989273 
	C167.987427,96.249588 167.984818,95.499947 167.986343,94.375504 
	C168.918716,94.462418 169.846970,94.924133 170.775208,95.385849 
	C170.090851,95.917000 169.406509,96.448151 168.356094,96.989273 
z"/>
<path fill="#F7E4D6" opacity="1.000000" stroke="none" 
	d="
M161.291565,130.902191 
	C161.332382,130.236847 161.723785,129.524765 162.420898,128.695038 
	C162.365143,129.336731 162.003662,130.096085 161.291565,130.902191 
z"/>
<path fill="#F2EFEF" opacity="1.000000" stroke="none" 
	d="
M71.110031,161.219635 
	C71.766052,161.317169 72.440147,161.754974 73.141968,162.514130 
	C72.489166,162.410309 71.808640,161.985107 71.110031,161.219635 
z"/>
<path fill="#F7E4D6" opacity="1.000000" stroke="none" 
	d="
M160.135864,132.801422 
	C160.065277,132.398712 160.268600,131.853806 160.709808,131.133514 
	C160.768356,131.525162 160.589050,132.092194 160.135864,132.801422 
z"/>
<path fill="#F2EFEF" opacity="1.000000" stroke="none" 
	d="
M166.238495,81.980865 
	C165.996338,81.999779 165.988327,81.500534 165.988419,81.250885 
	C166.404663,81.164474 166.820831,81.327698 167.236984,81.490936 
	C166.984879,81.647942 166.732758,81.804939 166.238495,81.980865 
z"/>
<path fill="#F7E4D6" opacity="1.000000" stroke="none" 
	d="
M143.109985,152.886307 
	C143.239288,152.490158 143.697418,152.111603 144.459198,151.717529 
	C144.321518,152.102646 143.880173,152.503265 143.109985,152.886307 
z"/>
<path fill="#F13D38" opacity="1.000000" stroke="none" 
	d="
M165.086823,86.121300 
	C165.086823,86.121300 165.214127,86.292770 165.026703,86.782494 
	C164.239670,88.583916 163.016907,89.958847 163.142517,91.196968 
	C163.906082,98.722946 159.214249,104.055389 155.766846,110.205566 
	C155.204025,110.956184 154.867172,111.489693 154.359787,112.165230 
	C153.807449,112.755783 153.425659,113.204308 152.801483,113.896332 
	C152.366043,114.761826 152.172974,115.383835 151.992874,116.005241 
	C152.005844,116.004639 152.001251,115.979088 151.721924,116.014771 
	C151.287247,116.369644 151.131912,116.688843 150.991974,117.007263 
	C151.007370,117.006477 151.001892,116.976128 150.670868,116.958084 
	C149.551834,117.628746 148.763809,118.317451 147.991913,119.007347 
	C148.008057,119.008545 148.008377,118.976181 147.696594,119.074799 
	C146.248291,120.117729 145.111771,121.062035 143.991302,122.007858 
	C144.007355,122.009384 144.008682,121.977150 143.652405,121.999481 
	C142.189056,123.012276 141.082001,124.002747 139.988800,124.999023 
	C140.002655,125.004829 140.001816,124.974823 139.632629,124.904755 
	C137.835999,125.207001 136.408524,125.579315 134.981323,125.585167 
	C134.981583,120.538551 134.981583,115.858391 134.981583,111.178238 
	C135.180099,111.178604 135.378616,111.178978 135.577118,111.179344 
	C135.887268,112.053375 136.197418,112.927406 136.507568,113.801437 
	C137.140381,111.170395 136.793793,108.622658 137.199249,106.200829 
	C139.150696,94.544830 135.170746,83.863480 131.992554,72.672058 
	C128.214478,66.419006 126.262680,59.124859 119.020630,56.007256 
	C119.012115,56.005547 119.015358,55.990730 119.009186,55.644405 
	C112.957512,48.724342 106.157379,43.397469 96.988182,41.643997 
	C96.975212,40.866005 96.966957,40.421234 97.049088,39.613686 
	C99.250168,39.113995 101.358971,38.914433 103.471878,38.850269 
	C118.025299,38.408291 130.111191,44.653408 141.459915,52.899845 
	C145.645935,55.941570 149.867859,58.933880 154.073410,61.948730 
	C154.413254,62.325172 154.753113,62.701614 155.163452,63.633514 
	C155.527588,64.435173 155.821213,64.681381 156.114853,64.927597 
	C156.114853,64.927597 155.998276,64.960495 156.021759,65.295364 
	C156.879776,67.175377 155.123749,70.610542 159.122055,69.847404 
	C159.122055,69.847404 159.105743,69.863518 159.137299,70.101379 
	C159.287918,70.638603 159.495041,70.852768 159.790253,70.981743 
	C161.273346,74.579689 162.756439,78.177643 164.158875,82.528824 
	C164.414413,84.228470 164.750610,85.174889 165.086823,86.121300 
z"/>
<path fill="#FBBE58" opacity="1.000000" stroke="none" 
	d="
M75.975594,159.960098 
	C75.047142,155.357178 71.059395,155.083130 67.208511,154.057343 
	C66.807327,154.066925 66.586449,153.692749 66.841637,153.297363 
	C67.436401,151.221283 67.775978,149.540573 68.115555,147.859879 
	C67.613083,147.798325 67.110611,147.736771 66.608139,147.675232 
	C66.260361,148.457199 65.912575,149.239151 65.416389,150.354797 
	C64.503761,147.961502 63.746574,145.975845 63.358055,143.907928 
	C64.117966,142.678299 64.956993,141.477539 64.827530,140.392303 
	C64.007919,133.522354 63.047855,126.665543 61.901234,119.843544 
	C61.780834,119.127190 60.142715,118.665924 59.128460,117.713898 
	C59.342052,115.873398 59.635925,114.405304 60.205681,113.130287 
	C63.060379,115.588402 65.500038,118.043663 68.259247,120.062111 
	C70.750916,121.884857 73.592003,123.229935 76.279007,124.785660 
	C76.773438,125.001175 77.267868,125.216682 77.877090,125.972198 
	C77.916451,127.001709 77.667801,127.870346 77.790398,127.926346 
	C84.237015,130.871353 89.018143,137.373199 97.089417,137.355133 
	C99.881447,138.680161 102.574059,140.358383 105.333290,140.476181 
	C115.078583,140.892212 125.125526,142.986847 134.104309,136.831818 
	C134.734695,136.399673 136.006195,136.902756 137.373566,136.980835 
	C140.875381,136.354950 144.323120,136.215805 145.256012,132.027573 
	C145.673050,132.012970 145.839890,132.007507 146.006714,132.002045 
	C148.827148,131.153946 151.647583,130.305832 154.609406,129.781342 
	C154.833405,130.069382 154.916000,130.033798 154.998611,129.998215 
	C154.998611,129.998215 155.456573,129.985092 155.684418,129.972168 
	C154.634628,132.055664 153.356979,134.152084 151.856506,136.882111 
	C147.727890,141.655884 143.822113,145.796051 139.573578,149.997040 
	C138.399460,150.577271 137.545135,151.063538 136.740173,151.621063 
	C123.989296,160.452515 110.098175,165.249573 94.415863,163.185349 
	C88.234695,162.371719 82.120361,161.050293 75.975594,159.960098 
z"/>
<path fill="#7C1B68" opacity="1.000000" stroke="none" 
	d="
M40.842232,74.358055 
	C40.666065,74.039337 40.669216,73.722412 41.345772,73.157196 
	C43.092072,71.435127 44.059757,69.370087 45.651749,68.606308 
	C49.832264,66.600655 49.304119,63.052383 49.372105,59.576645 
	C49.372105,59.576645 49.448944,59.479332 49.848389,59.568901 
	C50.792103,58.724041 51.336376,57.789608 51.880650,56.855179 
	C51.880650,56.855179 51.983624,56.969414 52.311806,56.957939 
	C53.838249,56.543655 55.159328,56.342484 56.212269,55.701111 
	C59.691952,53.581551 62.838867,50.119476 66.553329,49.379021 
	C71.419052,48.409069 76.707520,49.780678 81.806664,49.695812 
	C86.476997,49.618080 90.695839,53.971691 95.739876,50.841854 
	C96.633171,50.287560 98.638184,51.524895 100.129822,51.934887 
	C103.295662,53.797691 106.563675,55.510517 109.592644,57.574207 
	C111.734879,59.033756 111.255341,60.409584 108.151642,60.781433 
	C105.727844,60.373978 103.922165,60.235584 101.763618,59.927879 
	C95.626076,58.475807 90.355927,60.858101 89.697914,65.070175 
	C82.923752,69.815109 76.458328,74.403503 69.641830,79.040497 
	C63.576130,83.010429 60.006882,88.457016 57.706615,95.204391 
	C55.380302,99.397842 52.806927,103.216660 51.430969,107.426819 
	C50.246922,111.049774 50.428753,115.119141 49.960510,119.358139 
	C48.781338,122.998741 46.094711,126.456169 51.123772,129.225861 
	C51.430569,129.702362 51.683746,129.890350 52.499947,130.032837 
	C53.344452,130.065018 53.682629,130.066345 54.020805,130.067657 
	C54.020805,130.067657 54.228100,130.436005 53.779411,130.733337 
	C52.224720,133.016922 51.118713,135.003204 49.766968,136.827728 
	C49.323864,136.123215 49.126499,135.580444 48.942150,134.751404 
	C48.242054,133.829773 47.177898,133.330093 46.871555,132.537491 
	C44.494354,126.387054 42.263371,120.180092 39.977997,113.568687 
	C39.645973,106.771408 39.404266,100.390541 38.970898,94.022720 
	C38.694668,89.963852 38.134430,85.924309 37.701530,81.876106 
	C37.847382,81.343758 37.993229,80.811401 38.735458,80.042435 
	C39.835304,77.989899 40.338768,76.173981 40.842232,74.358055 
z"/>
<path fill="#D14444" opacity="1.000000" stroke="none" 
	d="
M132.054688,73.026550 
	C135.170746,83.863480 139.150696,94.544830 137.199249,106.200829 
	C136.793793,108.622658 137.140381,111.170395 136.507568,113.801437 
	C136.197418,112.927406 135.887268,112.053375 135.577118,111.179344 
	C135.378616,111.178978 135.180099,111.178604 134.981583,111.178238 
	C134.981583,115.858391 134.981583,120.538551 134.822617,125.830666 
	C134.115723,126.612610 133.567795,126.782600 132.991791,126.669083 
	C132.653458,125.941864 132.343216,125.498146 132.018524,124.795441 
	C131.822891,124.063675 131.641693,123.590904 131.460510,123.118134 
	C133.723953,111.110519 134.635742,99.087830 132.183182,86.973274 
	C129.060959,71.550789 120.262932,60.140232 107.171310,51.010399 
	C106.612686,50.356102 106.296318,50.231388 105.979942,50.106678 
	C105.529770,49.761673 105.079597,49.416664 104.291191,48.784561 
	C103.952957,48.497467 103.976402,48.003944 104.354012,47.962662 
	C106.973404,48.909382 109.318825,49.717117 111.430702,50.931110 
	C114.059685,52.442360 116.495895,54.288952 119.015358,55.990730 
	C119.015358,55.990730 119.012115,56.005547 118.986076,56.369827 
	C122.761040,62.281738 126.549194,67.838409 130.417908,73.338394 
	C130.549576,73.525604 131.490799,73.143364 132.054688,73.026550 
z"/>
<path fill="#F24E4D" opacity="1.000000" stroke="none" 
	d="
M154.008972,61.614861 
	C149.867859,58.933880 145.645935,55.941570 141.459915,52.899845 
	C130.111191,44.653408 118.025299,38.408291 103.471878,38.850269 
	C101.358971,38.914433 99.250168,39.113995 96.679108,39.573750 
	C91.807121,39.562099 87.395493,39.227604 83.224052,38.654884 
	C85.308960,37.597500 87.153671,36.778339 88.998383,35.959175 
	C89.605362,35.819485 90.212334,35.679790 91.624908,35.721169 
	C99.018478,36.270542 105.655861,36.264771 112.178711,37.126225 
	C117.340759,37.807961 122.362228,39.554134 127.446129,40.827625 
	C138.357040,44.953117 146.923737,52.115639 154.008972,61.614861 
z"/>
<path fill="#852C73" opacity="1.000000" stroke="none" 
	d="
M99.946144,51.623722 
	C98.638184,51.524895 96.633171,50.287560 95.739876,50.841854 
	C90.695839,53.971691 86.476997,49.618080 81.806664,49.695812 
	C76.707520,49.780678 71.419052,48.409069 66.553329,49.379021 
	C62.838867,50.119476 59.691952,53.581551 56.212269,55.701111 
	C55.159328,56.342484 53.838249,56.543655 52.247826,56.915287 
	C60.541851,44.498913 72.659096,42.908398 86.120529,46.328796 
	C90.788567,47.514896 95.221924,49.624668 99.946144,51.623722 
z"/>
<path fill="#F8C77D" opacity="1.000000" stroke="none" 
	d="
M136.979568,136.970947 
	C136.006195,136.902756 134.734695,136.399673 134.104309,136.831818 
	C125.125526,142.986847 115.078583,140.892212 105.333290,140.476181 
	C102.574059,140.358383 99.881447,138.680161 97.511902,137.356812 
	C99.284325,136.977966 100.703148,136.959885 102.121964,136.941803 
	C111.435684,137.854889 120.757721,138.815781 129.936401,135.999847 
	C132.745346,135.138092 135.500443,134.100845 138.595703,133.424957 
	C138.267319,134.794296 137.623444,135.882614 136.979568,136.970947 
z"/>
<path fill="#6C245F" opacity="1.000000" stroke="none" 
	d="
M54.107857,129.681442 
	C53.682629,130.066345 53.344452,130.065018 52.503044,129.782822 
	C52.000278,129.335266 52.000751,129.168579 52.276596,128.720505 
	C52.823483,124.988052 54.558525,121.142731 50.006649,118.991119 
	C50.428753,115.119141 50.246922,111.049774 51.430969,107.426819 
	C52.806927,103.216660 55.380302,99.397842 58.047691,95.171112 
	C59.747265,94.615303 60.833130,94.297554 61.918991,93.979813 
	C55.846489,104.986588 53.346584,116.774750 54.107857,129.681442 
z"/>
<path fill="#72245F" opacity="1.000000" stroke="none" 
	d="
M37.439445,82.092583 
	C38.134430,85.924309 38.694668,89.963852 38.970898,94.022720 
	C39.404266,100.390541 39.645973,106.771408 39.611919,113.614265 
	C38.338261,114.444237 37.421539,114.806694 36.504818,115.169151 
	C34.190090,105.614441 34.507038,96.055687 36.459473,86.125671 
	C36.458122,85.756905 36.397118,85.717392 36.425133,85.698303 
	C36.694546,84.555832 36.935951,83.432449 37.439445,82.092583 
z"/>
<path fill="#581649" opacity="1.000000" stroke="none" 
	d="
M69.992897,78.991890 
	C76.458328,74.403503 82.923752,69.815109 89.947365,65.101135 
	C90.672638,64.988503 90.839737,65.001457 91.121613,65.277649 
	C91.804993,66.302338 92.373596,67.063782 92.942200,67.825226 
	C92.487366,68.178276 92.032532,68.531326 91.097908,68.704880 
	C90.073486,69.004654 89.528862,69.483940 88.984238,69.963226 
	C88.044868,70.552498 87.105492,71.141777 85.765839,71.813118 
	C85.365547,71.895187 85.164085,72.100006 85.164085,72.100006 
	C80.375305,75.778748 75.586525,79.457481 70.441666,82.853996 
	C70.054695,81.378479 70.023796,80.185188 69.992897,78.991890 
z"/>
<path fill="#6A1D59" opacity="1.000000" stroke="none" 
	d="
M36.553711,115.576797 
	C37.421539,114.806694 38.338261,114.444237 39.621063,114.036201 
	C42.263371,120.180092 44.494354,126.387054 46.871555,132.537491 
	C47.177898,133.330093 48.242054,133.829773 48.599411,134.806335 
	C47.313534,135.829132 46.383419,136.510742 45.453300,137.192352 
	C42.503067,130.123047 39.552837,123.053749 36.553711,115.576797 
z"/>
<path fill="#792C67" opacity="1.000000" stroke="none" 
	d="
M50.012707,136.989487 
	C51.118713,135.003204 52.224720,133.016922 53.741882,130.941299 
	C55.673588,137.683319 57.194145,144.514694 59.011806,152.680862 
	C55.948586,149.769974 53.912621,147.835251 52.054413,145.359772 
	C51.492352,142.209183 50.752529,139.599335 50.012707,136.989487 
z"/>
<path fill="#C64947" opacity="1.000000" stroke="none" 
	d="
M131.286072,123.456223 
	C131.641693,123.590904 131.822891,124.063675 131.978439,125.106369 
	C132.303299,126.508919 132.653793,127.341537 133.388031,128.157059 
	C135.848465,127.084915 137.925140,126.029869 140.001816,124.974823 
	C140.001816,124.974823 140.002655,125.004829 140.346466,124.994354 
	C141.796417,123.981644 142.902557,122.979401 144.008698,121.977158 
	C144.008682,121.977150 144.007355,122.009384 144.352737,122.054314 
	C145.801544,121.058220 146.904953,120.017204 148.008377,118.976181 
	C148.008377,118.976181 148.008057,119.008545 148.358582,119.065918 
	C149.445343,119.055389 150.181580,118.987495 151.095154,119.103989 
	C151.398407,119.403358 151.524353,119.518333 151.650314,119.633308 
	C148.303131,122.313248 144.955963,124.993179 141.315674,127.849731 
	C136.980148,129.643814 132.937744,131.261292 127.725014,133.347046 
	C129.279129,128.963272 130.195374,126.378784 131.286072,123.456223 
z"/>
<path fill="#62184E" opacity="1.000000" stroke="none" 
	d="
M69.641830,79.040497 
	C70.023796,80.185188 70.054695,81.378479 70.133163,83.017334 
	C69.915588,83.840508 69.650436,84.218124 68.986435,84.593475 
	C68.438805,84.912148 68.290024,85.233086 68.141251,85.554031 
	C66.235977,88.217232 64.330696,90.880432 62.172211,93.761719 
	C60.833130,94.297554 59.747265,94.615303 58.320328,94.966324 
	C60.006882,88.457016 63.576130,83.010429 69.641830,79.040497 
z"/>
<path fill="#F5C986" opacity="1.000000" stroke="none" 
	d="
M101.893616,136.660187 
	C100.703148,136.959885 99.284325,136.977966 97.443024,136.994354 
	C89.018143,137.373199 84.237015,130.871353 77.790398,127.926346 
	C77.667801,127.870346 77.916451,127.001709 78.051025,126.182037 
	C85.961868,129.360748 93.813568,132.869659 101.893616,136.660187 
z"/>
<path fill="#A11813" opacity="1.000000" stroke="none" 
	d="
M119.009186,55.644405 
	C116.495895,54.288952 114.059685,52.442360 111.430702,50.931110 
	C109.318825,49.717117 106.973404,48.909382 104.095970,47.964043 
	C103.294647,48.053459 103.128967,48.100201 102.963295,48.146938 
	C102.963295,48.146938 102.700478,47.869545 102.460709,47.630058 
	C102.220932,47.390568 102.032585,46.943027 102.035660,46.686634 
	C101.369873,46.275558 100.701012,46.120872 99.699936,45.915031 
	C98.925499,45.826241 98.483292,45.788605 98.041077,45.750969 
	C98.041077,45.750973 97.909836,45.599491 97.696770,45.353333 
	C97.355293,44.974995 97.226875,44.842808 97.085426,44.368591 
	C97.045891,43.343449 97.019394,42.660332 96.992897,41.977219 
	C106.157379,43.397469 112.957512,48.724342 119.009186,55.644405 
z"/>
<path fill="#E45E5A" opacity="1.000000" stroke="none" 
	d="
M127.194122,40.555702 
	C122.362228,39.554134 117.340759,37.807961 112.178711,37.126225 
	C105.655861,36.264771 99.018478,36.270542 91.918472,35.840775 
	C103.840302,32.637024 115.524048,35.412487 127.194122,40.555702 
z"/>
<path fill="#C24944" opacity="1.000000" stroke="none" 
	d="
M96.988182,41.643997 
	C97.019394,42.660332 97.045891,43.343449 96.714500,44.405220 
	C93.226120,43.895191 90.095619,43.006508 86.965126,42.117825 
	C84.116333,41.181305 81.267548,40.244785 79.076767,39.132515 
	C80.817802,38.935547 81.900833,38.914326 82.983856,38.893108 
	C87.395493,39.227604 91.807121,39.562099 96.588730,39.936531 
	C96.966957,40.421234 96.975212,40.866005 96.988182,41.643997 
z"/>
<path fill="#E9C673" opacity="1.000000" stroke="none" 
	d="
M62.989388,143.990204 
	C63.746574,145.975845 64.503761,147.961502 65.416389,150.354797 
	C65.912575,149.239151 66.260361,148.457199 66.608139,147.675232 
	C67.110611,147.736771 67.613083,147.798325 68.115555,147.859879 
	C67.775978,149.540573 67.436401,151.221283 66.763084,153.094818 
	C65.572762,152.490585 64.273758,151.848282 63.931950,150.871140 
	C61.838375,144.886246 59.961647,138.825485 58.362862,132.396149 
	C59.135475,132.012054 59.557903,132.021805 60.011871,132.423126 
	C61.025402,136.539871 62.007393,140.265030 62.989388,143.990204 
z"/>
<path fill="#F5C986" opacity="1.000000" stroke="none" 
	d="
M76.155426,124.473640 
	C73.592003,123.229935 70.750916,121.884857 68.259247,120.062111 
	C65.500038,118.043663 63.060379,115.588402 60.258366,112.813477 
	C60.692207,111.865669 61.349247,111.427742 62.006287,110.989807 
	C62.006287,110.989807 62.000000,111.000000 62.039032,111.317772 
	C62.716385,112.094154 63.354702,112.552765 63.993019,113.011375 
	C68.005959,116.728127 72.018898,120.444878 76.155426,124.473640 
z"/>
<path fill="#49053C" opacity="1.000000" stroke="none" 
	d="
M93.269928,67.818085 
	C92.373596,67.063782 91.804993,66.302338 91.446503,65.130524 
	C95.143234,63.179161 98.629860,61.638172 102.116486,60.097187 
	C103.922165,60.235584 105.727844,60.373978 107.785706,60.802879 
	C106.969421,61.758495 105.900955,62.423603 104.081581,63.088181 
	C101.238808,64.093262 99.146950,65.098869 97.055084,66.104477 
	C95.902611,66.673294 94.750130,67.242119 93.269928,67.818085 
z"/>
<path fill="#F7E1BD" opacity="1.000000" stroke="none" 
	d="
M61.947479,110.645096 
	C61.349247,111.427742 60.692207,111.865669 59.982483,112.620407 
	C59.635925,114.405304 59.342052,115.873398 59.055740,118.161850 
	C59.004665,122.642639 58.946030,126.303055 58.663567,129.958282 
	C58.439743,129.953110 57.993534,129.990448 57.993534,129.990448 
	C58.158352,123.720680 58.267704,117.447678 58.632011,111.189522 
	C58.652870,110.831161 60.755104,110.593971 61.947479,110.645096 
z"/>
<path fill="#852C73" opacity="1.000000" stroke="none" 
	d="
M49.113918,59.760113 
	C49.304119,63.052383 49.832264,66.600655 45.651749,68.606308 
	C44.059757,69.370087 43.092072,71.435127 41.495789,72.961105 
	C43.719727,68.657913 46.287731,64.300743 49.113918,59.760113 
z"/>
<path fill="#601C51" opacity="1.000000" stroke="none" 
	d="
M49.766968,136.827728 
	C50.752529,139.599335 51.492352,142.209183 51.922611,145.046814 
	C51.163616,144.852737 50.714184,144.430893 50.116684,143.619049 
	C49.968616,143.229050 49.622440,143.024033 49.622444,143.024033 
	C48.309174,141.308517 46.995907,139.593018 45.567970,137.534927 
	C46.383419,136.510742 47.313534,135.829132 48.586395,135.092590 
	C49.126499,135.580444 49.323864,136.123215 49.766968,136.827728 
z"/>
<path fill="#F6C068" opacity="1.000000" stroke="none" 
	d="
M137.373566,136.980835 
	C137.623444,135.882614 138.267319,134.794296 138.966827,133.386780 
	C139.022461,133.067596 139.006683,133.019470 139.319519,132.993286 
	C140.088120,132.647736 140.543854,132.328369 140.999603,132.009003 
	C141.489838,131.708054 141.980072,131.407089 143.058594,131.096191 
	C144.099854,131.403076 144.552826,131.719894 145.005798,132.036713 
	C144.323120,136.215805 140.875381,136.354950 137.373566,136.980835 
z"/>
<path fill="#F9D2CE" opacity="1.000000" stroke="none" 
	d="
M87.056763,42.465473 
	C90.095619,43.006508 93.226120,43.895191 96.727539,44.747250 
	C97.226875,44.842808 97.355293,44.974995 97.596725,45.359200 
	C94.189301,44.678524 90.668846,43.745823 87.056763,42.465473 
z"/>
<path fill="#69345F" opacity="1.000000" stroke="none" 
	d="
M97.435471,66.124283 
	C99.146950,65.098869 101.238808,64.093262 103.740433,63.091309 
	C102.038742,64.111336 99.927299,65.127708 97.435471,66.124283 
z"/>
<path fill="#E45E5A" opacity="1.000000" stroke="none" 
	d="
M83.224052,38.654884 
	C81.900833,38.914326 80.817802,38.935547 79.329887,38.936256 
	C80.069977,38.289619 81.214958,37.663494 82.968063,36.942017 
	C83.827225,36.597622 84.078255,36.348587 84.329285,36.099548 
	C85.626312,36.029293 86.923340,35.959038 88.609375,35.923981 
	C87.153671,36.778339 85.308960,37.597500 83.224052,38.654884 
z"/>
<path fill="#F24E4D" opacity="1.000000" stroke="none" 
	d="
M159.099106,69.546478 
	C155.123749,70.610542 156.879776,67.175377 156.074112,65.264725 
	C156.861267,65.818901 157.619568,66.738602 158.604950,67.863159 
	C158.913406,68.460533 158.994781,68.853043 159.099106,69.546478 
z"/>
<path fill="#72245F" opacity="1.000000" stroke="none" 
	d="
M40.548939,74.606369 
	C40.338768,76.173981 39.835304,77.989899 38.899635,79.820450 
	C39.063503,78.174950 39.659576,76.514809 40.548939,74.606369 
z"/>
<path fill="#F1F0F0" opacity="1.000000" stroke="none" 
	d="
M137.000641,39.000763 
	C136.396790,39.588112 135.799881,40.183483 135.162766,40.732162 
	C135.134491,40.756504 134.739731,40.355244 134.515671,40.152225 
	C135.119064,39.772465 135.722443,39.392708 136.662231,39.005711 
	C136.998611,38.998474 137.000000,39.000000 137.000641,39.000763 
z"/>
<path fill="#F9D2CE" opacity="1.000000" stroke="none" 
	d="
M98.096085,46.141373 
	C98.483292,45.788605 98.925499,45.826241 99.841301,46.186333 
	C100.887451,46.653534 101.460022,46.798283 102.032585,46.943027 
	C102.032585,46.943027 102.220932,47.390568 102.269653,47.628586 
	C100.929276,47.421658 99.540184,46.976719 98.096085,46.141373 
z"/>
<path fill="#F8C77D" opacity="1.000000" stroke="none" 
	d="
M145.256012,132.027573 
	C144.552826,131.719894 144.099854,131.403076 143.359711,131.059570 
	C143.072525,131.032913 143.057251,130.586899 143.082672,130.366028 
	C143.863419,129.792465 144.618744,129.439774 145.686157,129.042358 
	C146.000870,129.748734 146.003510,130.499802 146.006439,131.626465 
	C145.839890,132.007507 145.673050,132.012970 145.256012,132.027573 
z"/>
<path fill="#852C73" opacity="1.000000" stroke="none" 
	d="
M51.594551,56.950500 
	C51.336376,57.789608 50.792103,58.724041 49.882050,59.516838 
	C50.113659,58.598747 50.711056,57.822289 51.594551,56.950500 
z"/>
<path fill="#FBBE58" opacity="1.000000" stroke="none" 
	d="
M57.989136,130.323639 
	C57.993534,129.990448 58.439743,129.953110 58.938629,130.114990 
	C59.618450,130.861755 59.799389,131.446655 59.980331,132.031555 
	C59.557903,132.021805 59.135475,132.012054 58.398434,131.993103 
	C58.050793,131.541534 58.017765,131.099182 57.989136,130.323639 
z"/>
<path fill="#69345F" opacity="1.000000" stroke="none" 
	d="
M89.279190,69.950684 
	C89.528862,69.483940 90.073486,69.004654 90.798294,68.729073 
	C90.510353,69.267899 90.042252,69.603020 89.279190,69.950684 
z"/>
<path fill="#F7E1BD" opacity="1.000000" stroke="none" 
	d="
M63.936600,112.697456 
	C63.354702,112.552765 62.716385,112.094154 62.043751,111.314606 
	C62.633018,111.456955 63.256603,111.920242 63.936600,112.697456 
z"/>
<path fill="#F8C77D" opacity="1.000000" stroke="none" 
	d="
M140.696564,132.018799 
	C140.543854,132.328369 140.088120,132.647736 139.343079,132.996002 
	C139.500366,132.692795 139.946930,132.360703 140.696564,132.018799 
z"/>
<path fill="#F24E4D" opacity="1.000000" stroke="none" 
	d="
M156.044815,64.648605 
	C155.821213,64.681381 155.527588,64.435173 155.199966,63.891571 
	C155.435577,63.852661 155.705185,64.111145 156.044815,64.648605 
z"/>
<path fill="#792C67" opacity="1.000000" stroke="none" 
	d="
M49.597427,143.164764 
	C49.622440,143.024033 49.968616,143.229050 50.014732,143.320786 
	C50.060844,143.412521 49.786880,143.494324 49.786880,143.494324 
	C49.786880,143.494324 49.572414,143.305496 49.597427,143.164764 
z"/>
<path fill="#581649" opacity="1.000000" stroke="none" 
	d="
M68.395332,85.407959 
	C68.290024,85.233086 68.438805,84.912148 68.764816,84.672615 
	C68.844505,84.923325 68.746956,85.092613 68.395332,85.407959 
z"/>
<path fill="#F9D2CE" opacity="1.000000" stroke="none" 
	d="
M106.085167,50.319031 
	C106.296318,50.231388 106.612686,50.356102 106.960503,50.745922 
	C106.668472,50.945206 106.401283,50.785324 106.085167,50.319031 
z"/>
<path fill="#F9D2CE" opacity="1.000000" stroke="none" 
	d="
M103.068382,48.373123 
	C103.128967,48.100201 103.294647,48.053459 103.718361,48.005329 
	C103.976402,48.003944 103.952957,48.497467 104.008186,48.738312 
	C103.703506,49.000736 103.406860,48.874119 103.068382,48.373123 
z"/>
<path fill="#69345F" opacity="1.000000" stroke="none" 
	d="
M85.242241,72.197800 
	C85.164085,72.100006 85.365547,71.895187 85.440300,71.903458 
	C85.515053,71.911728 85.533897,72.162888 85.533897,72.162888 
	C85.533897,72.162888 85.320396,72.295593 85.242241,72.197800 
z"/>
<path fill="#F1F0F0" opacity="1.000000" stroke="none" 
	d="
M84.073318,36.146503 
	C84.078255,36.348587 83.827225,36.597622 83.304047,36.846245 
	C83.293716,36.628372 83.555534,36.410912 84.073318,36.146503 
z"/>
<path fill="#C72B24" opacity="1.000000" stroke="none" 
	d="
M155.992798,109.988457 
	C159.214249,104.055389 163.906082,98.722946 163.142517,91.196968 
	C163.016907,89.958847 164.239670,88.583916 164.958466,86.864624 
	C168.783371,95.173012 165.426010,102.548798 160.058594,109.840416 
	C158.749039,110.022682 158.055771,110.024643 157.020264,110.010902 
	C156.449600,109.992950 156.221207,109.990707 155.992798,109.988457 
z"/>
<path fill="#C64947" opacity="1.000000" stroke="none" 
	d="
M157.362518,110.026611 
	C158.055771,110.024643 158.749039,110.022682 159.787415,110.052368 
	C157.505829,113.181549 154.879135,116.279068 151.951370,119.504944 
	C151.524353,119.518333 151.398407,119.403358 151.121994,118.781425 
	C150.981644,117.841690 150.991760,117.408905 151.001892,116.976128 
	C151.001892,116.976128 151.007370,117.006477 151.251831,116.941803 
	C151.664612,116.577789 151.832932,116.278435 152.001251,115.979088 
	C152.001251,115.979088 152.005844,116.004639 152.308716,115.843613 
	C152.755661,115.006012 152.899765,114.329422 153.043854,113.652840 
	C153.425659,113.204308 153.807449,112.755783 154.750458,112.171806 
	C155.995285,111.366440 156.678894,110.696526 157.362518,110.026611 
z"/>
<path fill="#C72B24" opacity="1.000000" stroke="none" 
	d="
M165.098114,85.730453 
	C164.750610,85.174889 164.414413,84.228470 164.068726,82.879242 
	C164.409317,83.430832 164.759369,84.385223 165.098114,85.730453 
z"/>
<path fill="#F1F0F0" opacity="1.000000" stroke="none" 
	d="
M166.265289,104.012909 
	C166.421402,103.911995 166.578339,103.962204 166.735260,104.012413 
	C166.578873,104.062958 166.422470,104.113495 166.265289,104.012909 
z"/>
<path fill="#F24E4D" opacity="1.000000" stroke="none" 
	d="
M159.791656,70.739212 
	C159.495041,70.852768 159.287918,70.638603 159.134598,70.112488 
	C159.463165,69.939857 159.694077,70.143501 159.791656,70.739212 
z"/>
<path fill="#A46E0B" opacity="1.000000" stroke="none" 
	d="
M76.077682,160.312286 
	C82.120361,161.050293 88.234695,162.371719 94.415863,163.185349 
	C110.098175,165.249573 123.989296,160.452515 136.740173,151.621063 
	C137.545135,151.063538 138.399460,150.577271 139.780426,150.102905 
	C140.603607,150.314835 140.796616,150.548279 140.909042,150.848297 
	C135.721527,154.025955 130.534012,157.203613 125.155457,160.667709 
	C124.964432,160.954163 124.988548,160.966522 124.685608,161.004333 
	C123.898697,161.355042 123.414719,161.667908 122.930740,161.980789 
	C122.439041,162.180267 121.947350,162.379745 120.831123,162.711639 
	C118.799515,163.225540 117.392433,163.607010 115.985344,163.988464 
	C115.985344,163.988464 116.000000,164.001083 115.690155,163.997971 
	C114.835884,164.259521 114.291451,164.524185 113.747009,164.788849 
	C112.808647,165.027191 111.870285,165.265533 110.645721,165.502808 
	C105.196098,165.648712 100.032684,165.795700 94.407364,165.999664 
	C88.023567,164.259277 82.101669,162.461884 76.077682,160.312286 
z"/>
<path fill="#B87A0D" opacity="1.000000" stroke="none" 
	d="
M141.229767,150.755188 
	C140.796616,150.548279 140.603607,150.314835 140.123169,150.042084 
	C143.822113,145.796051 147.727890,141.655884 151.814728,137.232269 
	C151.949463,137.874161 152.276443,139.130432 151.796722,139.671570 
	C148.475266,143.418365 144.985916,147.016327 141.229767,150.755188 
z"/>
<path fill="#E5B24C" opacity="1.000000" stroke="none" 
	d="
M116.377686,164.009766 
	C117.392433,163.607010 118.799515,163.225540 120.588272,162.818726 
	C119.569977,163.205948 118.170006,163.618500 116.377686,164.009766 
z"/>
<path fill="#E5B24C" opacity="1.000000" stroke="none" 
	d="
M114.070053,164.837479 
	C114.291451,164.524185 114.835884,164.259521 115.687958,163.988754 
	C115.461426,164.283798 114.927261,164.584946 114.070053,164.837479 
z"/>
<path fill="#E5B24C" opacity="1.000000" stroke="none" 
	d="
M123.238785,161.972473 
	C123.414719,161.667908 123.898697,161.355042 124.676926,160.997513 
	C124.496391,161.289963 124.021614,161.627060 123.238785,161.972473 
z"/>
<path fill="#F1F0F0" opacity="1.000000" stroke="none" 
	d="
M77.427994,166.954849 
	C77.802780,166.727066 78.175133,166.729294 78.545387,166.758377 
	C78.555695,166.759186 78.543381,167.047714 78.541611,167.202087 
	C78.169502,167.197601 77.797386,167.193100 77.427994,166.954849 
z"/>
<path fill="#BA221A" opacity="1.000000" stroke="none" 
	d="
M131.992554,72.672058 
	C131.490799,73.143364 130.549576,73.525604 130.417908,73.338394 
	C126.549194,67.838409 122.761040,62.281738 118.994591,56.371536 
	C126.262680,59.124859 128.214478,66.419006 131.992554,72.672058 
z"/>
<path fill="#9F0E09" opacity="1.000000" stroke="none" 
	d="
M139.632629,124.904755 
	C137.925140,126.029869 135.848465,127.084915 133.372757,127.850731 
	C132.989105,127.358528 133.004486,127.155556 133.019867,126.952576 
	C133.567795,126.782600 134.115723,126.612610 134.822357,126.197128 
	C136.408524,125.579315 137.835999,125.207001 139.632629,124.904755 
z"/>
<path fill="#9F0E09" opacity="1.000000" stroke="none" 
	d="
M143.652405,121.999481 
	C142.902557,122.979401 141.796417,123.981644 140.332611,124.988548 
	C141.082001,124.002747 142.189056,123.012276 143.652405,121.999481 
z"/>
<path fill="#9F0E09" opacity="1.000000" stroke="none" 
	d="
M147.696594,119.074799 
	C146.904953,120.017204 145.801544,121.058220 144.336670,122.052788 
	C145.111771,121.062035 146.248291,120.117729 147.696594,119.074799 
z"/>
<path fill="#9F0E09" opacity="1.000000" stroke="none" 
	d="
M150.670868,116.958084 
	C150.991760,117.408905 150.981644,117.841690 150.944672,118.597031 
	C150.181580,118.987495 149.445343,119.055389 148.342438,119.064713 
	C148.763809,118.317451 149.551834,117.628746 150.670868,116.958084 
z"/>
<path fill="#9F0E09" opacity="1.000000" stroke="none" 
	d="
M157.020264,110.010902 
	C156.678894,110.696526 155.995285,111.366440 154.920990,112.029785 
	C154.867172,111.489693 155.204025,110.956184 155.766846,110.205566 
	C156.221207,109.990707 156.449600,109.992950 157.020264,110.010902 
z"/>
<path fill="#9F0E09" opacity="1.000000" stroke="none" 
	d="
M152.801483,113.896332 
	C152.899765,114.329422 152.755661,115.006012 152.295746,115.844223 
	C152.172974,115.383835 152.366043,114.761826 152.801483,113.896332 
z"/>
<path fill="#9F0E09" opacity="1.000000" stroke="none" 
	d="
M151.721924,116.014771 
	C151.832932,116.278435 151.664612,116.577789 151.236435,116.942589 
	C151.131912,116.688843 151.287247,116.369644 151.721924,116.014771 
z"/>
<path fill="#E4A62A" opacity="1.000000" stroke="none" 
	d="
M60.011868,132.423126 
	C59.799389,131.446655 59.618450,130.861755 59.162453,130.120163 
	C58.946030,126.303055 59.004665,122.642639 59.136024,118.534271 
	C60.142715,118.665924 61.780834,119.127190 61.901234,119.843544 
	C63.047855,126.665543 64.007919,133.522354 64.827530,140.392303 
	C64.956993,141.477539 64.117966,142.678299 63.358055,143.907928 
	C62.007393,140.265030 61.025402,136.539871 60.011868,132.423126 
z"/>
<path fill="#F6C068" opacity="1.000000" stroke="none" 
	d="
M154.999298,129.999115 
	C154.916000,130.033798 154.833405,130.069382 154.876282,130.053162 
	C155.001770,130.001373 155.000000,130.000000 154.999298,129.999115 
z"/>
<path fill="#741A60" opacity="1.000000" stroke="none" 
	d="
M49.960510,119.358139 
	C54.558525,121.142731 52.823483,124.988052 52.029636,128.722534 
	C51.507301,129.005966 51.013458,129.013672 51.013458,129.013672 
	C46.094711,126.456169 48.781338,122.998741 49.960510,119.358139 
z"/>
<path fill="#761D62" opacity="1.000000" stroke="none" 
	d="
M101.763618,59.927879 
	C98.629860,61.638172 95.143234,63.179161 91.331726,64.867279 
	C90.839737,65.001457 90.672638,64.988503 90.256096,64.944595 
	C90.355927,60.858101 95.626076,58.475807 101.763618,59.927879 
z"/>
<path fill="#792C67" opacity="1.000000" stroke="none" 
	d="
M51.123772,129.225861 
	C51.013458,129.013672 51.507301,129.005966 51.754261,129.003937 
	C52.000751,129.168579 52.000278,129.335266 51.996712,129.751968 
	C51.683746,129.890350 51.430569,129.702362 51.123772,129.225861 
z"/>
<path fill="#F13D38" opacity="1.000000" stroke="none" 
	d="
M132.991791,126.669083 
	C133.004486,127.155556 132.989105,127.358528 132.989014,127.867836 
	C132.653793,127.341537 132.303299,126.508919 131.992889,125.365356 
	C132.343216,125.498146 132.653458,125.941864 132.991791,126.669083 
z"/>
<path fill="#C24944" opacity="1.000000" stroke="none" 
	d="
M102.035660,46.686634 
	C101.460022,46.798283 100.887451,46.653534 100.173523,46.237488 
	C100.701012,46.120872 101.369873,46.275558 102.035660,46.686634 
z"/>
</svg>