<svg version="1.1" id="Layer_1" xmlns="http://www.w3.org/2000/svg" xmlns:xlink="http://www.w3.org/1999/xlink" x="0px" y="0px"
	 width="100%" viewBox="0 0 920 500" enable-background="new 0 0 920 500" xml:space="preserve">
<path fill="#FFFFFF" opacity="1.000000" stroke="none" 
	d="
M609.000000,501.000000 
	C406.000000,501.000000 203.500000,501.000000 1.000000,501.000000 
	C1.000000,334.333344 1.000000,167.666672 1.000000,1.000000 
	C307.666656,1.000000 614.333313,1.000000 921.000000,1.000000 
	C921.000000,167.666672 921.000000,334.333344 921.000000,501.000000 
	C817.166687,501.000000 713.333313,501.000000 609.000000,501.000000 
M806.065735,244.995407 
	C810.535034,247.030273 806.159485,252.028748 809.081726,254.808197 
	C812.425232,249.398560 811.405212,245.578735 805.755188,242.359283 
	C800.150330,240.412262 795.683167,241.679199 793.336853,245.881287 
	C790.967285,250.124985 792.202942,254.212463 797.447083,258.607086 
	C797.954163,257.454865 798.461243,256.302673 799.651855,255.380539 
	C800.291626,254.783035 800.931458,254.185516 801.514587,253.640976 
	C802.248596,254.291214 803.097168,255.042953 803.951172,256.395264 
	C804.376404,257.096405 804.801636,257.797516 805.226868,258.498627 
	C805.548645,258.340637 805.870422,258.182678 806.192139,258.024689 
	C805.761047,257.005310 805.329895,255.985947 804.501160,254.179611 
	C804.012329,253.338654 803.163330,252.523041 803.102051,251.651993 
	C802.915955,249.009079 803.034668,246.344696 803.034668,243.394135 
	C803.685730,243.595108 804.882080,243.964386 806.065735,244.995407 
M257.945892,276.812347 
	C266.277374,276.862152 274.610504,276.829407 282.939545,276.999603 
	C286.636993,277.075165 290.394012,277.458130 292.099091,281.626129 
	C294.431244,287.326904 291.639099,292.843384 285.333252,293.148895 
	C272.368042,293.777130 259.364746,293.621735 246.377029,293.781921 
	C244.634109,293.803436 242.890701,293.784912 241.303741,293.784912 
	C241.303741,298.562805 241.303741,302.633179 241.303741,306.934479 
	C255.449570,306.934479 269.262695,307.001251 283.074310,306.887787 
	C286.551300,306.859253 290.076691,306.525299 293.487396,305.858765 
	C301.571259,304.278961 307.410126,299.692139 308.641998,291.329773 
	C311.570496,271.449860 304.303802,264.137512 286.988739,263.931396 
	C279.990295,263.848053 272.989899,263.939514 265.990692,263.900513 
	C264.333557,263.891296 262.646667,263.837219 261.027222,263.524841 
	C257.153442,262.777649 254.817963,260.565125 254.651108,256.396301 
	C254.480850,252.142166 255.834518,248.704498 260.125702,247.374130 
	C262.461670,246.649948 265.041077,246.486954 267.513885,246.466904 
	C278.678925,246.376373 289.845093,246.427368 301.010864,246.427353 
	C302.581787,246.427353 304.152679,246.427353 305.562408,246.427353 
	C305.562408,241.552612 305.562408,237.465790 305.562408,233.086670 
	C296.096039,233.086670 286.950897,232.973297 277.809967,233.121674 
	C270.162170,233.245804 262.473114,233.255524 254.887527,234.090195 
	C247.468353,234.906540 241.761902,238.778229 239.309021,246.291412 
	C234.071671,262.333252 240.599655,273.490387 257.945892,276.812347 
M331.708191,253.199966 
	C327.111145,253.199966 322.514099,253.199966 317.909576,253.199966 
	C317.909576,266.174438 317.519348,279.128693 318.055267,292.044525 
	C318.378998,299.846436 323.122498,304.420197 330.813232,305.915009 
	C334.379456,306.608154 338.072815,306.746582 341.718536,306.903778 
	C345.438934,307.064240 349.171631,306.939301 352.942566,306.939301 
	C352.225708,313.302429 350.523071,315.143250 344.621277,315.295746 
	C336.045288,315.517273 327.459351,315.352570 318.918762,315.352570 
	C318.918762,319.589447 318.918762,323.024689 318.918762,326.703644 
	C328.993591,326.703644 338.812012,327.094086 348.586365,326.604553 
	C360.739471,325.995911 366.980286,320.654419 367.430542,308.948761 
	C368.145142,290.373230 367.621155,271.750092 367.621155,253.063599 
	C362.730438,253.063599 357.988831,253.063599 352.880188,253.063599 
	C352.880188,267.099823 352.880188,280.853363 352.880188,294.635101 
	C352.053986,294.776947 351.585388,294.924561 351.115997,294.927216 
	C347.786011,294.945984 344.453491,295.014893 341.126221,294.917145 
	C333.854126,294.703674 332.105377,292.987335 332.018402,285.537872 
	C331.895966,275.049530 331.964935,264.558960 331.708191,253.199966 
M618.356873,285.124115 
	C621.493347,285.330475 624.775879,285.055328 627.705566,285.943695 
	C629.199890,286.396820 631.001953,288.974213 630.943054,290.526154 
	C630.884338,292.073151 628.948120,294.148193 627.332031,294.878601 
	C625.492920,295.709717 623.097229,295.414185 620.942688,295.424225 
	C611.691467,295.467255 602.439941,295.442566 593.387817,295.442566 
	C593.387817,299.692047 593.387817,303.250641 593.387817,306.938324 
	C605.249939,306.938324 616.728394,306.945221 628.206848,306.936310 
	C639.178162,306.927826 645.435181,300.951721 645.647949,290.300262 
	C645.849365,280.216156 639.517578,274.206970 628.418457,273.972778 
	C626.421814,273.930634 624.423218,273.991119 622.426147,273.960571 
	C618.766907,273.904602 615.006592,274.289917 611.492615,273.537659 
	C609.782593,273.171600 607.455200,270.697266 607.392090,269.098999 
	C607.334351,267.635437 609.688721,265.383942 611.449280,264.715942 
	C613.666992,263.874512 616.360596,264.193787 618.849854,264.178864 
	C626.762756,264.131409 634.676208,264.161316 642.626831,264.161316 
	C642.626831,260.007477 642.626831,256.580139 642.626831,252.810654 
	C631.617615,252.810654 620.813660,252.620117 610.019165,252.857666 
	C595.740845,253.171860 589.293396,261.981598 592.707764,275.862854 
	C593.826477,280.410675 596.472351,283.435486 601.018311,284.028625 
	C606.432007,284.735016 611.930969,284.788055 618.356873,285.124115 
M697.509888,252.785599 
	C684.105469,256.315338 676.907593,265.628326 676.791443,279.592102 
	C676.678833,293.130859 683.753967,303.472534 696.086426,306.414429 
	C701.136841,307.619232 706.696106,307.859131 711.856995,307.210297 
	C726.533386,305.365173 735.018433,295.190735 735.157104,280.284668 
	C735.297729,265.169891 726.729980,254.446396 712.225464,252.367599 
	C707.707397,251.720062 702.984131,252.504623 697.509888,252.785599 
M772.752686,265.129517 
	C776.886047,265.943359 777.825806,269.027100 777.879028,272.581512 
	C777.963745,278.237946 777.910339,283.896454 777.912354,289.554108 
	C777.914368,295.299469 777.912781,301.044800 777.912781,306.599731 
	C783.200867,306.599731 787.767456,306.599731 792.210266,306.599731 
	C792.210266,293.316650 792.624634,280.355347 792.055420,267.437378 
	C791.711731,259.636383 787.437012,254.821014 779.669983,254.036972 
	C767.328308,252.791122 754.857849,252.819870 742.511536,252.312317 
	C742.511536,271.058899 742.511536,288.923218 742.511536,306.628845 
	C747.486389,306.628845 752.073364,306.628845 757.068604,306.628845 
	C757.068604,292.597137 757.068604,278.871094 757.068604,265.014038 
	C762.282715,265.014038 767.080200,265.014038 772.752686,265.129517 
M412.207245,266.172760 
	C413.042633,269.278442 414.507080,272.365784 414.598450,275.493225 
	C414.902496,285.901245 414.713440,296.323669 414.713440,306.808838 
	C419.840027,306.808838 424.316803,306.808838 428.926788,306.808838 
	C428.926788,293.406189 429.329468,280.110870 428.762543,266.856964 
	C428.464172,259.881897 423.876770,254.716476 416.813934,254.078140 
	C404.332794,252.950089 391.759735,252.839386 379.235901,252.303345 
	C379.235901,271.142670 379.235901,288.869873 379.235901,306.690704 
	C384.106934,306.690704 388.687531,306.690704 393.727417,306.690704 
	C393.727417,292.730255 393.727417,279.004395 393.727417,264.480927 
	C399.958679,264.947723 405.684296,265.376678 412.207245,266.172760 
M546.893005,267.505737 
	C546.893005,262.718903 546.893005,257.932098 546.893005,253.134338 
	C541.767273,253.134338 537.052490,253.134338 532.207947,253.134338 
	C532.207947,265.139465 531.972229,276.790924 532.275635,288.428345 
	C532.566711,299.591919 537.308228,305.372314 548.395325,306.266510 
	C559.575684,307.168274 570.885376,306.465149 582.361572,306.465149 
	C582.361572,288.698639 582.361572,270.966003 582.361572,253.098846 
	C577.484253,253.098846 572.783875,253.098846 567.669556,253.098846 
	C567.669556,267.160187 567.669556,280.900970 567.669556,294.804504 
	C562.785767,294.804504 558.314392,294.911499 553.850525,294.774841 
	C549.245972,294.633881 546.888062,292.166718 546.906738,287.480042 
	C546.931946,281.154541 546.900330,274.828827 546.893005,267.505737 
M511.755035,233.124847 
	C497.412323,232.590363 498.382019,243.249359 498.143921,252.955322 
	C494.438690,252.955322 491.344208,252.955322 488.357056,252.955322 
	C488.357056,256.749969 488.357056,260.162659 488.357056,264.097656 
	C491.891876,264.097656 495.104187,264.097656 498.564880,264.097656 
	C498.564880,278.584381 498.564880,292.532227 498.564880,306.563782 
	C503.694183,306.563782 508.541534,306.563782 513.647583,306.563782 
	C513.647583,292.242371 513.647583,278.303436 513.647583,264.002258 
	C518.176819,264.002258 522.454834,264.002258 526.936646,264.002258 
	C526.936646,260.077179 526.936646,256.520203 526.936646,252.523087 
	C522.412048,252.523087 518.176086,252.523087 513.366699,252.523087 
	C513.736755,249.934235 513.443970,246.445953 514.433838,246.033081 
	C518.349609,244.399826 522.667297,243.730011 526.944824,242.676163 
	C526.944824,239.778900 526.944824,236.526978 526.944824,233.076050 
	C522.001465,233.076050 517.346252,233.076050 511.755035,233.124847 
M485.563934,255.933594 
	C485.886993,253.672485 485.175751,252.650635 482.628815,252.722397 
	C475.479858,252.923843 468.312866,252.645035 461.173309,252.983871 
	C448.264069,253.596512 439.958405,260.996460 437.372192,273.748505 
	C434.342865,288.685516 442.371796,303.741669 455.503693,305.750305 
	C465.233185,307.238586 475.244019,306.887604 485.167908,307.357788 
	C485.167908,302.688660 485.167908,298.994995 485.167908,295.017761 
	C478.113892,295.017761 471.464417,295.086761 464.817139,294.996002 
	C459.487335,294.923218 455.551697,292.382477 453.450714,287.497284 
	C448.251251,275.407501 454.227264,265.582886 467.220154,264.816101 
	C471.366638,264.571381 475.533478,264.665405 479.691193,264.620148 
	C481.598053,264.599365 483.505280,264.616608 485.563934,264.616608 
	C485.563934,261.460419 485.563934,259.137512 485.563934,255.933594 
M200.711533,202.152420 
	C209.244843,209.322113 217.778137,216.491806 226.605240,223.908325 
	C234.201630,215.119904 241.680267,206.467728 249.290512,197.663284 
	C240.263199,190.128723 231.492783,182.808563 222.547043,175.342072 
	C214.928253,184.279297 207.589188,192.888412 200.711533,202.152420 
M220.377869,266.908722 
	C222.467010,266.908722 224.556152,266.908722 226.605042,266.908722 
	C226.605042,255.286758 226.605042,244.374985 226.605042,233.439911 
	C215.126999,233.439911 203.930344,233.439911 192.717880,233.439911 
	C192.717880,244.722961 192.717880,255.642319 192.717880,266.908722 
	C201.802353,266.908722 210.602509,266.908722 220.377869,266.908722 
M129.495117,193.167603 
	C123.394600,193.167603 117.294075,193.167603 111.243492,193.167603 
	C111.243492,204.745850 111.243492,215.679108 111.243492,226.643921 
	C122.704514,226.643921 133.914169,226.643921 145.168808,226.643921 
	C145.168808,215.384308 145.168808,204.447891 145.168808,193.167603 
	C140.101624,193.167603 135.296753,193.167603 129.495117,193.167603 
M145.422775,251.493225 
	C145.422775,245.421127 145.422775,239.349030 145.422775,233.443054 
	C133.520706,233.443054 122.320557,233.443054 111.238434,233.443054 
	C111.238434,244.702042 111.238434,255.606079 111.238434,266.622375 
	C122.665886,266.622375 133.848053,266.622375 145.422729,266.622375 
	C145.422729,261.733795 145.422729,257.110199 145.422775,251.493225 
M225.151199,306.920502 
	C225.707962,306.449219 226.746597,305.982025 226.750687,305.505981 
	C226.842804,294.755737 226.821472,284.004547 226.821472,273.256500 
	C215.161118,273.256500 204.085083,273.256500 192.962524,273.256500 
	C192.962524,284.574341 192.962524,295.644287 192.962524,306.931274 
	C203.580811,306.931274 213.893005,306.931274 225.151199,306.920502 
M186.027725,253.490173 
	C186.027725,246.759842 186.027725,240.029495 186.027725,233.354492 
	C174.270081,233.354492 163.217163,233.354492 152.175995,233.354492 
	C152.175995,244.633759 152.175995,255.643875 152.175995,266.619690 
	C163.581482,266.619690 174.626633,266.619690 186.027725,266.619690 
	C186.027725,262.392914 186.027725,258.439392 186.027725,253.490173 
M151.817825,217.470215 
	C151.817825,220.562439 151.817825,223.654678 151.817825,226.665192 
	C163.575455,226.665192 174.651993,226.665192 185.776184,226.665192 
	C185.776184,215.444366 185.776184,204.525970 185.776184,193.395111 
	C174.446167,193.395111 163.368393,193.395111 151.817825,193.395111 
	C151.817825,201.236816 151.817825,208.858337 151.817825,217.470215 
M145.413605,301.447968 
	C145.413605,292.050140 145.413605,282.652313 145.413605,273.376190 
	C133.513977,273.376190 122.301666,273.376190 111.227394,273.376190 
	C111.227394,284.674194 111.227394,295.609772 111.227394,306.655487 
	C122.688950,306.655487 133.919250,306.655487 145.413681,306.655487 
	C145.413681,305.067963 145.413681,303.752930 145.413605,301.447968 
M179.426956,273.015015 
	C170.339523,273.015015 161.252090,273.015015 152.102997,273.015015 
	C152.102997,284.538361 152.102997,295.566650 152.102997,306.588989 
	C163.574387,306.588989 174.762039,306.588989 185.728470,306.588989 
	C185.728470,295.211182 185.728470,284.175293 185.728470,273.015015 
	C183.707657,273.015015 182.056381,273.015015 179.426956,273.015015 
M654.162048,270.501373 
	C654.162048,282.572906 654.162048,294.644440 654.162048,306.657867 
	C659.595154,306.657867 664.337646,306.657867 669.200928,306.657867 
	C669.200928,288.633240 669.200928,270.887695 669.200928,253.182022 
	C664.088379,253.182022 659.216919,253.182022 654.162048,253.182022 
	C654.162048,258.887360 654.162048,264.194702 654.162048,270.501373 
M657.742004,246.904770 
	C661.499329,246.904770 665.256714,246.904770 669.122437,246.904770 
	C669.122437,242.086685 669.122437,237.728287 669.122437,233.408691 
	C664.043213,233.408691 659.310242,233.408691 654.137756,233.408691 
	C654.137756,237.254379 653.965393,240.863037 654.259399,244.433304 
	C654.332458,245.320511 655.913757,246.083542 657.742004,246.904770 
z"/>
<path fill="#040404" opacity="1.000000" stroke="none" 
	d="
M257.498444,276.764343 
	C240.599655,273.490387 234.071671,262.333252 239.309021,246.291412 
	C241.761902,238.778229 247.468353,234.906540 254.887527,234.090195 
	C262.473114,233.255524 270.162170,233.245804 277.809967,233.121674 
	C286.950897,232.973297 296.096039,233.086670 305.562408,233.086670 
	C305.562408,237.465790 305.562408,241.552612 305.562408,246.427353 
	C304.152679,246.427353 302.581787,246.427353 301.010864,246.427353 
	C289.845093,246.427368 278.678925,246.376373 267.513885,246.466904 
	C265.041077,246.486954 262.461670,246.649948 260.125702,247.374130 
	C255.834518,248.704498 254.480850,252.142166 254.651108,256.396301 
	C254.817963,260.565125 257.153442,262.777649 261.027222,263.524841 
	C262.646667,263.837219 264.333557,263.891296 265.990692,263.900513 
	C272.989899,263.939514 279.990295,263.848053 286.988739,263.931396 
	C304.303802,264.137512 311.570496,271.449860 308.641998,291.329773 
	C307.410126,299.692139 301.571259,304.278961 293.487396,305.858765 
	C290.076691,306.525299 286.551300,306.859253 283.074310,306.887787 
	C269.262695,307.001251 255.449570,306.934479 241.303741,306.934479 
	C241.303741,302.633179 241.303741,298.562805 241.303741,293.784912 
	C242.890701,293.784912 244.634109,293.803436 246.377029,293.781921 
	C259.364746,293.621735 272.368042,293.777130 285.333252,293.148895 
	C291.639099,292.843384 294.431244,287.326904 292.099091,281.626129 
	C290.394012,277.458130 286.636993,277.075165 282.939545,276.999603 
	C274.610504,276.829407 266.277374,276.862152 257.498444,276.764343 
z"/>
<path fill="#060606" opacity="1.000000" stroke="none" 
	d="
M331.830139,253.634644 
	C331.964935,264.558960 331.895966,275.049530 332.018402,285.537872 
	C332.105377,292.987335 333.854126,294.703674 341.126221,294.917145 
	C344.453491,295.014893 347.786011,294.945984 351.115997,294.927216 
	C351.585388,294.924561 352.053986,294.776947 352.880188,294.635101 
	C352.880188,280.853363 352.880188,267.099823 352.880188,253.063599 
	C357.988831,253.063599 362.730438,253.063599 367.621155,253.063599 
	C367.621155,271.750092 368.145142,290.373230 367.430542,308.948761 
	C366.980286,320.654419 360.739471,325.995911 348.586365,326.604553 
	C338.812012,327.094086 328.993591,326.703644 318.918762,326.703644 
	C318.918762,323.024689 318.918762,319.589447 318.918762,315.352570 
	C327.459351,315.352570 336.045288,315.517273 344.621277,315.295746 
	C350.523071,315.143250 352.225708,313.302429 352.942566,306.939301 
	C349.171631,306.939301 345.438934,307.064240 341.718536,306.903778 
	C338.072815,306.746582 334.379456,306.608154 330.813232,305.915009 
	C323.122498,304.420197 318.378998,299.846436 318.055267,292.044525 
	C317.519348,279.128693 317.909576,266.174438 317.909576,253.199966 
	C322.514099,253.199966 327.111145,253.199966 331.830139,253.634644 
z"/>
<path fill="#060606" opacity="1.000000" stroke="none" 
	d="
M617.874939,285.124115 
	C611.930969,284.788055 606.432007,284.735016 601.018311,284.028625 
	C596.472351,283.435486 593.826477,280.410675 592.707764,275.862854 
	C589.293396,261.981598 595.740845,253.171860 610.019165,252.857666 
	C620.813660,252.620117 631.617615,252.810654 642.626831,252.810654 
	C642.626831,256.580139 642.626831,260.007477 642.626831,264.161316 
	C634.676208,264.161316 626.762756,264.131409 618.849854,264.178864 
	C616.360596,264.193787 613.666992,263.874512 611.449280,264.715942 
	C609.688721,265.383942 607.334351,267.635437 607.392090,269.098999 
	C607.455200,270.697266 609.782593,273.171600 611.492615,273.537659 
	C615.006592,274.289917 618.766907,273.904602 622.426147,273.960571 
	C624.423218,273.991119 626.421814,273.930634 628.418457,273.972778 
	C639.517578,274.206970 645.849365,280.216156 645.647949,290.300262 
	C645.435181,300.951721 639.178162,306.927826 628.206848,306.936310 
	C616.728394,306.945221 605.249939,306.938324 593.387817,306.938324 
	C593.387817,303.250641 593.387817,299.692047 593.387817,295.442566 
	C602.439941,295.442566 611.691467,295.467255 620.942688,295.424225 
	C623.097229,295.414185 625.492920,295.709717 627.332031,294.878601 
	C628.948120,294.148193 630.884338,292.073151 630.943054,290.526154 
	C631.001953,288.974213 629.199890,286.396820 627.705566,285.943695 
	C624.775879,285.055328 621.493347,285.330475 617.874939,285.124115 
z"/>
<path fill="#040404" opacity="1.000000" stroke="none" 
	d="
M697.932373,252.709595 
	C702.984131,252.504623 707.707397,251.720062 712.225464,252.367599 
	C726.729980,254.446396 735.297729,265.169891 735.157104,280.284668 
	C735.018433,295.190735 726.533386,305.365173 711.856995,307.210297 
	C706.696106,307.859131 701.136841,307.619232 696.086426,306.414429 
	C683.753967,303.472534 676.678833,293.130859 676.791443,279.592102 
	C676.907593,265.628326 684.105469,256.315338 697.932373,252.709595 
M695.222046,291.138428 
	C699.290894,296.207184 704.684021,297.049194 710.500549,295.431030 
	C716.330505,293.809113 718.919067,289.136719 719.623230,283.563843 
	C720.008911,280.511108 719.803772,277.237122 719.131287,274.226807 
	C717.568237,267.229828 712.999878,263.823975 705.995300,263.825256 
	C698.986633,263.826538 694.518005,267.251953 692.766541,274.197845 
	C691.338501,279.860901 691.710510,285.367554 695.222046,291.138428 
z"/>
<path fill="#060606" opacity="1.000000" stroke="none" 
	d="
M772.315186,265.071777 
	C767.080200,265.014038 762.282715,265.014038 757.068604,265.014038 
	C757.068604,278.871094 757.068604,292.597137 757.068604,306.628845 
	C752.073364,306.628845 747.486389,306.628845 742.511536,306.628845 
	C742.511536,288.923218 742.511536,271.058899 742.511536,252.312317 
	C754.857849,252.819870 767.328308,252.791122 779.669983,254.036972 
	C787.437012,254.821014 791.711731,259.636383 792.055420,267.437378 
	C792.624634,280.355347 792.210266,293.316650 792.210266,306.599731 
	C787.767456,306.599731 783.200867,306.599731 777.912781,306.599731 
	C777.912781,301.044800 777.914368,295.299469 777.912354,289.554108 
	C777.910339,283.896454 777.963745,278.237946 777.879028,272.581512 
	C777.825806,269.027100 776.886047,265.943359 772.315186,265.071777 
z"/>
<path fill="#040404" opacity="1.000000" stroke="none" 
	d="
M411.808594,265.989197 
	C405.684296,265.376678 399.958679,264.947723 393.727417,264.480927 
	C393.727417,279.004395 393.727417,292.730255 393.727417,306.690704 
	C388.687531,306.690704 384.106934,306.690704 379.235901,306.690704 
	C379.235901,288.869873 379.235901,271.142670 379.235901,252.303345 
	C391.759735,252.839386 404.332794,252.950089 416.813934,254.078140 
	C423.876770,254.716476 428.464172,259.881897 428.762543,266.856964 
	C429.329468,280.110870 428.926788,293.406189 428.926788,306.808838 
	C424.316803,306.808838 419.840027,306.808838 414.713440,306.808838 
	C414.713440,296.323669 414.902496,285.901245 414.598450,275.493225 
	C414.507080,272.365784 413.042633,269.278442 411.808594,265.989197 
z"/>
<path fill="#080808" opacity="1.000000" stroke="none" 
	d="
M546.893066,268.004456 
	C546.900330,274.828827 546.931946,281.154541 546.906738,287.480042 
	C546.888062,292.166718 549.245972,294.633881 553.850525,294.774841 
	C558.314392,294.911499 562.785767,294.804504 567.669556,294.804504 
	C567.669556,280.900970 567.669556,267.160187 567.669556,253.098846 
	C572.783875,253.098846 577.484253,253.098846 582.361572,253.098846 
	C582.361572,270.966003 582.361572,288.698639 582.361572,306.465149 
	C570.885376,306.465149 559.575684,307.168274 548.395325,306.266510 
	C537.308228,305.372314 532.566711,299.591919 532.275635,288.428345 
	C531.972229,276.790924 532.207947,265.139465 532.207947,253.134338 
	C537.052490,253.134338 541.767273,253.134338 546.893005,253.134338 
	C546.893005,257.932098 546.893005,262.718903 546.893066,268.004456 
z"/>
<path fill="#0A0A0A" opacity="1.000000" stroke="none" 
	d="
M512.223022,233.100449 
	C517.346252,233.076050 522.001465,233.076050 526.944824,233.076050 
	C526.944824,236.526978 526.944824,239.778900 526.944824,242.676163 
	C522.667297,243.730011 518.349609,244.399826 514.433838,246.033081 
	C513.443970,246.445953 513.736755,249.934235 513.366699,252.523087 
	C518.176086,252.523087 522.412048,252.523087 526.936646,252.523087 
	C526.936646,256.520203 526.936646,260.077179 526.936646,264.002258 
	C522.454834,264.002258 518.176819,264.002258 513.647583,264.002258 
	C513.647583,278.303436 513.647583,292.242371 513.647583,306.563782 
	C508.541534,306.563782 503.694183,306.563782 498.564880,306.563782 
	C498.564880,292.532227 498.564880,278.584381 498.564880,264.097656 
	C495.104187,264.097656 491.891876,264.097656 488.357056,264.097656 
	C488.357056,260.162659 488.357056,256.749969 488.357056,252.955322 
	C491.344208,252.955322 494.438690,252.955322 498.143921,252.955322 
	C498.382019,243.249359 497.412323,232.590363 512.223022,233.100449 
z"/>
<path fill="#080808" opacity="1.000000" stroke="none" 
	d="
M485.563934,256.374084 
	C485.563934,259.137512 485.563934,261.460419 485.563934,264.616608 
	C483.505280,264.616608 481.598053,264.599365 479.691193,264.620148 
	C475.533478,264.665405 471.366638,264.571381 467.220154,264.816101 
	C454.227264,265.582886 448.251251,275.407501 453.450714,287.497284 
	C455.551697,292.382477 459.487335,294.923218 464.817139,294.996002 
	C471.464417,295.086761 478.113892,295.017761 485.167908,295.017761 
	C485.167908,298.994995 485.167908,302.688660 485.167908,307.357788 
	C475.244019,306.887604 465.233185,307.238586 455.503693,305.750305 
	C442.371796,303.741669 434.342865,288.685516 437.372192,273.748505 
	C439.958405,260.996460 448.264069,253.596512 461.173309,252.983871 
	C468.312866,252.645035 475.479858,252.923843 482.628815,252.722397 
	C485.175751,252.650635 485.886993,253.672485 485.563934,256.374084 
z"/>
<path fill="#040404" opacity="1.000000" stroke="none" 
	d="
M200.480820,201.824982 
	C207.589188,192.888412 214.928253,184.279297 222.547043,175.342072 
	C231.492783,182.808563 240.263199,190.128723 249.290512,197.663284 
	C241.680267,206.467728 234.201630,215.119904 226.605240,223.908325 
	C217.778137,216.491806 209.244843,209.322113 200.480820,201.824982 
z"/>
<path fill="#080808" opacity="1.000000" stroke="none" 
	d="
M219.890259,266.908722 
	C210.602509,266.908722 201.802353,266.908722 192.717880,266.908722 
	C192.717880,255.642319 192.717880,244.722961 192.717880,233.439911 
	C203.930344,233.439911 215.126999,233.439911 226.605042,233.439911 
	C226.605042,244.374985 226.605042,255.286758 226.605042,266.908722 
	C224.556152,266.908722 222.467010,266.908722 219.890259,266.908722 
z"/>
<path fill="#030303" opacity="1.000000" stroke="none" 
	d="
M129.993500,193.167603 
	C135.296753,193.167603 140.101624,193.167603 145.168808,193.167603 
	C145.168808,204.447891 145.168808,215.384308 145.168808,226.643921 
	C133.914169,226.643921 122.704514,226.643921 111.243492,226.643921 
	C111.243492,215.679108 111.243492,204.745850 111.243492,193.167603 
	C117.294075,193.167603 123.394600,193.167603 129.993500,193.167603 
z"/>
<path fill="#030303" opacity="1.000000" stroke="none" 
	d="
M145.422760,251.989914 
	C145.422729,257.110199 145.422729,261.733795 145.422729,266.622375 
	C133.848053,266.622375 122.665886,266.622375 111.238434,266.622375 
	C111.238434,255.606079 111.238434,244.702042 111.238434,233.443054 
	C122.320557,233.443054 133.520706,233.443054 145.422775,233.443054 
	C145.422775,239.349030 145.422775,245.421127 145.422760,251.989914 
z"/>
<path fill="#030303" opacity="1.000000" stroke="none" 
	d="
M224.678207,306.925903 
	C213.893005,306.931274 203.580811,306.931274 192.962524,306.931274 
	C192.962524,295.644287 192.962524,284.574341 192.962524,273.256500 
	C204.085083,273.256500 215.161118,273.256500 226.821472,273.256500 
	C226.821472,284.004547 226.842804,294.755737 226.750687,305.505981 
	C226.746597,305.982025 225.707962,306.449219 224.678207,306.925903 
z"/>
<path fill="#030303" opacity="1.000000" stroke="none" 
	d="
M186.027725,253.988007 
	C186.027725,258.439392 186.027725,262.392914 186.027725,266.619690 
	C174.626633,266.619690 163.581482,266.619690 152.175995,266.619690 
	C152.175995,255.643875 152.175995,244.633759 152.175995,233.354492 
	C163.217163,233.354492 174.270081,233.354492 186.027725,233.354492 
	C186.027725,240.029495 186.027725,246.759842 186.027725,253.988007 
z"/>
<path fill="#030303" opacity="1.000000" stroke="none" 
	d="
M151.817825,216.975037 
	C151.817825,208.858337 151.817825,201.236816 151.817825,193.395111 
	C163.368393,193.395111 174.446167,193.395111 185.776184,193.395111 
	C185.776184,204.525970 185.776184,215.444366 185.776184,226.665192 
	C174.651993,226.665192 163.575455,226.665192 151.817825,226.665192 
	C151.817825,223.654678 151.817825,220.562439 151.817825,216.975037 
z"/>
<path fill="#010101" opacity="1.000000" stroke="none" 
	d="
M145.413635,301.942932 
	C145.413681,303.752930 145.413681,305.067963 145.413681,306.655487 
	C133.919250,306.655487 122.688950,306.655487 111.227394,306.655487 
	C111.227394,295.609772 111.227394,284.674194 111.227394,273.376190 
	C122.301666,273.376190 133.513977,273.376190 145.413605,273.376190 
	C145.413605,282.652313 145.413605,292.050140 145.413635,301.942932 
z"/>
<path fill="#010101" opacity="1.000000" stroke="none" 
	d="
M179.916016,273.015015 
	C182.056381,273.015015 183.707657,273.015015 185.728470,273.015015 
	C185.728470,284.175293 185.728470,295.211182 185.728470,306.588989 
	C174.762039,306.588989 163.574387,306.588989 152.102997,306.588989 
	C152.102997,295.566650 152.102997,284.538361 152.102997,273.015015 
	C161.252090,273.015015 170.339523,273.015015 179.916016,273.015015 
z"/>
<path fill="#050505" opacity="1.000000" stroke="none" 
	d="
M654.162048,270.001709 
	C654.162048,264.194702 654.162048,258.887360 654.162048,253.182022 
	C659.216919,253.182022 664.088379,253.182022 669.200928,253.182022 
	C669.200928,270.887695 669.200928,288.633240 669.200928,306.657867 
	C664.337646,306.657867 659.595154,306.657867 654.162048,306.657867 
	C654.162048,294.644440 654.162048,282.572906 654.162048,270.001709 
z"/>
<path fill="#0C0C0C" opacity="1.000000" stroke="none" 
	d="
M657.271912,246.904205 
	C655.913757,246.083542 654.332458,245.320511 654.259399,244.433304 
	C653.965393,240.863037 654.137756,237.254379 654.137756,233.408691 
	C659.310242,233.408691 664.043213,233.408691 669.122437,233.408691 
	C669.122437,237.728287 669.122437,242.086685 669.122437,246.904770 
	C665.256714,246.904770 661.499329,246.904770 657.271912,246.904205 
z"/>
<path fill="#303030" opacity="1.000000" stroke="none" 
	d="
M803.945740,255.794708 
	C803.097168,255.042953 802.248596,254.291214 801.514587,253.640976 
	C800.931458,254.185516 800.291626,254.783035 799.285522,254.794281 
	C798.919250,250.870850 798.919250,247.533676 798.919250,243.875687 
	C793.784302,246.876923 792.909912,249.972610 795.375305,254.239532 
	C796.074585,255.449692 796.491028,256.823273 797.037109,258.121918 
	C792.202942,254.212463 790.967285,250.124985 793.336853,245.881287 
	C795.683167,241.679199 800.150330,240.412262 805.846558,243.001373 
	C805.984741,243.873550 806.031616,244.103622 806.078430,244.333679 
	C804.882080,243.964386 803.685730,243.595108 803.034668,243.394135 
	C803.034668,246.344696 802.915955,249.009079 803.102051,251.651993 
	C803.163330,252.523041 804.012329,253.338654 804.424561,254.737411 
	C804.213989,255.461700 804.079895,255.628204 803.945740,255.794708 
z"/>
<path fill="#EBEBEB" opacity="1.000000" stroke="none" 
	d="
M797.242065,258.364502 
	C796.491028,256.823273 796.074585,255.449692 795.375305,254.239532 
	C792.909912,249.972610 793.784302,246.876923 798.919250,243.875687 
	C798.919250,247.533676 798.919250,250.870850 798.943848,254.679230 
	C798.461243,256.302673 797.954163,257.454865 797.242065,258.364502 
z"/>
<path fill="#EBEBEB" opacity="1.000000" stroke="none" 
	d="
M806.072083,244.664551 
	C806.031616,244.103622 805.984741,243.873550 806.056885,243.312012 
	C811.405212,245.578735 812.425232,249.398560 809.081726,254.808197 
	C806.159485,252.028748 810.535034,247.030273 806.072083,244.664551 
z"/>
<path fill="#EBEBEB" opacity="1.000000" stroke="none" 
	d="
M803.948486,256.094971 
	C804.079895,255.628204 804.213989,255.461700 804.623413,255.130890 
	C805.329895,255.985947 805.761047,257.005310 806.192139,258.024689 
	C805.870422,258.182678 805.548645,258.340637 805.226868,258.498627 
	C804.801636,257.797516 804.376404,257.096405 803.948486,256.094971 
z"/>
<path fill="#FAFAFA" opacity="1.000000" stroke="none" 
	d="
M695.016968,290.817413 
	C691.710510,285.367554 691.338501,279.860901 692.766541,274.197845 
	C694.518005,267.251953 698.986633,263.826538 705.995300,263.825256 
	C712.999878,263.823975 717.568237,267.229828 719.131287,274.226807 
	C719.803772,277.237122 720.008911,280.511108 719.623230,283.563843 
	C718.919067,289.136719 716.330505,293.809113 710.500549,295.431030 
	C704.684021,297.049194 699.290894,296.207184 695.016968,290.817413 
z"/>
</svg>